<?xml version="1.0" encoding="UTF-8"?>
<svg viewBox="0 0 243.96188 267.49451" xmlns="http://www.w3.org/2000/svg" xmlns:xlink="http://www.w3.org/1999/xlink">
 <defs>
  <filter id="j">
   <feGaussianBlur stdDeviation="3.6807"/>
  </filter>
  <linearGradient id="a">
   <stop offset="0"/>
   <stop stop-opacity="0" offset="1"/>
  </linearGradient>
  <linearGradient id="g" x1="38.506" x2="38.251" y1="22.886" y2="35.018" gradientTransform="matrix(.84394 0 0 1.1849 -1.2803 1.6893)" gradientUnits="userSpaceOnUse">
   <stop stop-color="#1d2349" offset="0"/>
   <stop stop-color="#4c5279" offset=".35315"/>
   <stop stop-color="#b3bdff" offset=".46552"/>
   <stop stop-color="#727cbe" offset=".64982"/>
   <stop stop-color="#323c7e" offset="1"/>
  </linearGradient>
  <linearGradient id="f" x1="37.503" x2="36.499" y1="35.458" y2="27.404" gradientTransform="scale(.84394 1.1849)" gradientUnits="userSpaceOnUse">
   <stop stop-color="#d5dbff" offset="0"/>
   <stop stop-color="#6579ff" stop-opacity="0" offset="1"/>
  </linearGradient>
  <linearGradient id="i" x1="15.339" x2="43.141" y1="5.9245" y2="49.895" gradientTransform="matrix(.97573 0 0 .93103 -.132 1.9784)" gradientUnits="userSpaceOnUse">
   <stop stop-color="#ffa196" offset="0"/>
   <stop stop-color="#ff1f06" stop-opacity="0" offset="1"/>
  </linearGradient>
  <linearGradient id="h" x1="17.822" x2="29.536" y1="10.37" y2="23.338" gradientUnits="userSpaceOnUse">
   <stop stop-color="#fff" stop-opacity=".24742" offset="0"/>
   <stop stop-color="#fff" stop-opacity="0" offset="1"/>
  </linearGradient>
  <radialGradient id="e" cx="29.082" cy="23.104" r="17.403" gradientUnits="userSpaceOnUse">
   <stop stop-color="#e41e08" offset="0"/>
   <stop stop-color="#901505" offset="1"/>
  </radialGradient>
  <radialGradient id="b" cx="25.992" cy="21.178" r="16.686" gradientUnits="userSpaceOnUse">
   <stop stop-color="#e41e08" offset="0"/>
   <stop stop-color="#901505" offset="1"/>
  </radialGradient>
  <radialGradient id="c" cx="26.697" cy="18.992" r="33.968" gradientUnits="userSpaceOnUse" xlink:href="#a"/>
  <radialGradient id="d" cx="25.99" cy="18.815" r="33.968" gradientUnits="userSpaceOnUse" xlink:href="#a"/>
 </defs>
 <g transform="matrix(1.2979 -.29406 .29406 1.2979 -1198.4 -233.9)">
  <path d="m971.62 570.92c0.0958-0.10492-0.0957-13.226-0.42565-29.158s-1.0306-50.624-1.5569-77.093-1.066-49.567-1.1994-51.329l-0.24237-3.2023-31.561 9e-3c-30.053 9e-3 -31.921-0.0392-39.088-1.0024-9.9422-1.336-22.407-1.7558-31.932-1.0755-8.5273 0.60911-24.687 2.2168-24.953 2.4824-0.18187 0.18188 17.204 159.61 17.434 159.87 0.0712 0.0796 3.0236-0.18844 6.561-0.59566 8.9298-1.028 12.899-1.0419 20.802-0.0731 3.7634 0.46141 9.8191 1.0075 13.457 1.2134 6.5063 0.36835 72.364 0.32986 72.704-0.0425v-2e-5z" filter="url(#j)" stroke="#000" stroke-width="2.4709"/>
  <path d="m967.05 569.61c0.0958-0.10492-0.0957-13.226-0.42565-29.158s-1.0306-50.624-1.5569-77.093-1.066-49.567-1.1994-51.329l-0.24237-3.2023-31.561 9e-3c-30.053 9e-3 -31.921-0.0392-39.088-1.0024-9.9422-1.336-22.407-1.7558-31.932-1.0755-8.5273 0.60911-24.687 2.2168-24.953 2.4824-0.18187 0.18188 17.204 159.61 17.434 159.87 0.0712 0.0796 3.0236-0.18844 6.561-0.59566 8.9298-1.028 12.899-1.0419 20.802-0.0731 3.7634 0.46141 9.8191 1.0075 13.457 1.2134 6.5063 0.36835 72.364 0.32986 72.704-0.0425v-2e-5z" fill="#f2f2f2" stroke="#000" stroke-width="2.4709"/>
  <path d="m836.66979,408.70339 11.22483-1.2287c6.10064-.73999 15.09009-1.46371 26.9644-1.52716 9.57215.2982 16.5252.9892 20.86025,1.72626 3.50624.43829 5.38138.74778 5.63879.67711 7.74547.53087 17.92819.28547 30.50584.33367l32.10958-.44742c.46361,26.66666.92764,53.34852 1.39208,80.04559s.92845,53.37893 1.392,80.0456l-33.74324.46493c-11.14802.0605-24.71453.22418-40.65722-.57869-7.90644-.53033-14.14911-1.26642-18.74137-1.9569-2.71051-.24496-2.8358-.4277-.37695-.20147-.0898-.18455-3.04047.2561-8.84803.67793l-10.27659,1.12794zm113.92172,141.55019-1.25072,1.65038 .28068,2.45972-1.83973.0254-.0682-1.78346-.52775,1.79168-1.91066.0263c.49254-1.67285.98431-3.34568 1.47531-5.01851l1.90776-.0263c-.20568.7026-.41151,1.40521-.61747,2.10782l.94474-1.21087 1.60599-.0222m-4.521-.83909-.19108.65404-1.96481.0271 .19147-.65404zm-.26858.90517-.9569,3.25474c-.1125.38231-.20117.64182-.26591.77856-.0616.13462-.16915.25342-.32258.35639s-.33392.18366-.55099.23605-.52901.0814-.9358.087l-.73791.0102 .19212-.65713c.227-.003.35925-.0215.39675-.0549s.11582-.24034.22543-.62054l.99081-3.36326zm-3.45931,3.16578-.13264.44946c-.067.23556-.16597.42936-.2969.5814s-.31729.28222-.55907.39052-.49497.18177-.76899.22054l.10538-.35957c.2106-.0729.34528-.16837.40404-.2865l-.32159.004 .28849-.98262zm-.70679-3.10831-1.25517,1.65044 .27396,2.45979-1.83973.0254-.0633-1.78351-.53262,1.79173-1.91066.0263c.49708-1.6729.99339-3.34579 1.48892-5.01867l1.90775-.0263c-.20758.70263-.41531,1.40525-.62317,2.10788l.948-1.2109 1.60598-.0222m-4.39753.0607c-.70319,1.37526-1.40728,2.75053-2.11226,4.12581l-2.21365.0305-.25999.001c.0772-1.2983.15452-2.59657.23201-3.89481 .004-.0676.009-.13522.013-.20283l1.70516-.0235c-.11827.99776-.23667,1.99551-.35517,2.99327 .10549-.21961.33469-.75787.68716-1.6148 .19791-.47815.39742-.94192.59854-1.39131zm-6.69581-.83019c-.10678.37515-.21368.75031-.32071,1.12549 .18648-.0998.37724-.17487.5722-.22528s.39561-.0761.60186-.0772c.31683-.002.56997.0528.76073.16305s.2892.23844.29622.38452c.007.14404-.0428.40871-.14936.79407-.26373.94278-.52802,1.88566-.793,2.82863l-1.82219.01c.27514-.96275.54933-1.92546.82272-2.8881 .0672-.2391.093-.39258.0774-.46042s-.0836-.10145-.2043-.10081c-.11162.00058-.19746.036-.25732.10633s-.11614.20954-.17791.41775c-.27761.97609-.55609,1.95223-.83562,2.92841l-1.86551.01c.48786-1.66886.972-3.33776 1.45323-5.00658l1.8416-.01m-5.19138.92787-.14349.37732c.18507-.15106.38737-.26413.60668-.33924s.4634-.11639.7226-.11765c.32478-.002.57377.0476.74844.14757 .17778.1.27326.2271.28706.3814s-.0317.40775-.13699.76646c-.27944.95863-.56002,1.91726-.84191,2.87586l-1.90989.009c.28439-.94703.56729-1.89414.84886-2.84128 .0826-.28239.11882-.45444.10882-.51615s-.0795-.0923-.20876-.0917c-.13559.0006-.23167.037-.28793.10931s-.13056.25994-.22294.56909c-.27558.92439-.55248,1.84872-.83086,2.77299l-1.95293.006c.42099-1.3667.83831-2.73364 1.2524-4.10078 .65894-.002 1.31255-.005 1.96084-.007m-2.37724-.89305-.19784.65206-2.02679.004 .20213-.6517 2.0225-.004zm-.27817.90239c-.33053,1.08158-.66319,2.16302-.9982,3.2443-.11805.38102-.21112.6395-.27889.77546-.0645.13389-.17661.25137-.33667.35241s-.34851.17942-.57565.22893-.55388.0743-.98255.0741l-.78004-.00083 .20783-.65428c.24019.0003.37966-.0161.4194-.049s.1236-.23869.24116-.61738c.35443-1.11654.70605-2.23331 1.05509-3.35028l2.02852-.003m-5.11963-.90126-.36525,1.12272c.20845-.0981.42143-.17158.63894-.22043s.44119-.0731.67105-.0727c.3531.00059.63511.0565.84749.16773s.32186.23997.3292.38612c.007.1441-.0491.4086-.16981.79345l-.90155,2.82421-2.04348-.006c.31675-.95987.63107-1.91997.94311-2.8803 .0767-.23854.10656-.39181.0896-.45979s-.0925-.10213-.22705-.10255c-.12441-.00039-.22035.0343-.28762.10402-.0639.0698-.13114.20845-.20173.41608-.31765.9734-.6377,1.94658-.96032,2.91949l-2.08646-.014c.56721-1.66137 1.12625-3.32363 1.67791-4.98666l2.04597.009m-5.49529-.0372c-.12947.37314-.25938.74623-.38972,1.11926 .21768-.0962.43985-.16782.66651-.21481s.45954-.0694.69867-.0671c.36734.003.66033.0616.8805.17443s.33321.24238.33975.38856c.006.14413-.0542.40815-.18277.79201-.31799.93912-.63852,1.87795-.96173,2.8165-.70467-.007-1.41478-.0146-2.13034-.0239 .33907-.95669.67512-1.91374 1.00831-2.87112 .082-.23782.11433-.39079.0973-.4589s-.0954-.10291-.23534-.10451c-.12945-.001-.22956.0323-.30018.10143s-.13832.20723-.21367.41416c-.33945.9703-.68189,1.94025-1.02749,2.90982l-2.1732-.0351c.60875-1.65489 1.20757-3.31101 1.79726-4.96824l2.12618.0275m-3.22801.85648c-.37702,1.04529-.75783,2.09011-1.14261,3.13443-.15473.42306-.27341.69651-.35531.82043s-.25466.24916-.51965.38155-.596.2334-1.00529.29616-.89877.0903-1.4815.0753c-.71636-.0184-1.27064-.10209-1.65688-.24923s-.50853-.4134-.36603-.80433l2.19021.0607c-.0707.17932.0125.27205.24902.27793 .16998.004.29228-.0206.36717-.0743 .0786-.0537.15096-.16822.21713-.34365l.11655-.30597c-.22598.0914-.45578.15895-.68937.20254s-.4617.0625-.69529.0563c-.40413-.0106-.72153-.0648-.95035-.16178s-.35831-.2192-.39914-.36654-.007-.35833.10111-.6269l.57401-1.47182c.15059-.38481.38285-.6583.69577-.82087 .31658-.16247.7291-.23729 1.23591-.22521 .2771.007.51638.044.71847.11228 .20572.0684.37242.1677.50052.29804l.27126-.303 2.02427.0381m-2.58177,1.03667c.0689-.18578.0928-.30463.072-.35653s-.091-.0792-.22193-.0821-.22787.0248-.30187.0827-.1437.16959-.20921.34095l-.51734,1.36459c-.07.18147-.0966.30019-.0793.35617 .0209.054.0958.0826.22438.0857 .14696.004.25398-.027.32129-.0912s.15086-.21157.23952-.44212l.47252-1.25823m-2.48406-2.04893-.24218.62628c-.46062-.0127-.73895-.009-.83223.0134s-.16185.0847-.20579.19459l-.0482.12823 .94404.0273-.24985.64132-.53412-.0155c-.43416,1.10381-.87346,2.20692-1.31812,3.30932-.76308-.0246-1.53158-.0513-2.30549-.0802 .45785-1.09984.91003-2.20045 1.35678-3.30181l-.46954-.0165 .26034-.63929 .468.0162c.10664-.26604.19494-.44319.26527-.53142s.18517-.16466.34416-.22944c.16279-.0667.3695-.11458.61968-.14378s.63125-.036 1.12966-.0216l.81759.0229m-4.51891,2.30388-2.18471-.0864 .19925-.46427c.0686-.16189.0886-.27226.0604-.3311-.0243-.0607-.10345-.0938-.23768-.0995s-.23532.0157-.30297.0644-.13825.16088-.21189.33686c-.27009.63292-.54215,1.26557-.81622,1.89792-.0653.14331-.0785.25292-.0392.32884 .0395.0738.12737.11387.26361.11993 .15958.007.28376-.0256.37268-.0979s.17887-.2126.26973-.42083l.20166-.47945 2.07289.0832c-.13842.32215-.26086.56351-.36693.72415s-.3043.31875-.59631.48009-.62757.27539-1.01925.34743-.84299.0937-1.36698.07c-.66868-.0303-1.17575-.11458-1.51631-.25075s-.54673-.3177-.61771-.53765-.012-.52809.16351-.91899l.50449-1.14002c.15157-.34071.33119-.5946.53874-.76178s.55551-.30807 1.04106-.42389 1.03866-.16346 1.64664-.13808c.60416.0252 1.08771.11311 1.45422.26514s.58311.33385.63973.54594 .006.50775-.15246.88688m-8.67253-.69447c-.91338-.0705-1.80271-.14446-2.66803-.22132l.12156-.2123c.10401-.18083.14362-.29715.11899-.34889s-.13118-.089-.33277-.10702c-.16322-.0146-.29894-.003-.40809.0344-.10425.036-.18181.098-.23323.18623-.0688.1197-.0989.20988-.0903.2706s.0926.13052.25341.21545c.16548.0854.52603.22066 1.09792.40426 .76426.24357 1.25653.44981 1.44713.62189s.19425.40038.0234.68606c-.18894.31933-.44083.55197-.75273.69758-.3067.14397-.73542.23923-1.27638.28464-.53585.0439-1.13871.0345-1.79812-.0286-.73059-.0699-1.31011-.17846-1.75367-.32378s-.7056-.30825-.79763-.48788-.0388-.43053.14525-.75431l.10832-.18707c.79349.085 1.61145.16813 2.45391.24879l-.14552.24648c-.12062.20956-.16781.34864-.14147.41734s.13346.11218.32297.13022c.20376.0194.35884.0122.46348-.0214 .10972-.0353.20501-.12044.28566-.25559 .10974-.18619.12342-.30787.0423-.36491s-.56792-.24756-1.41353-.57491c-.71051-.27681-1.09282-.50459-1.17781-.68105s-.0628-.37689.0648-.59529c.17836-.31034.40304-.52905.6767-.65638s.66034-.21143 1.16864-.24721 1.08502-.0243 1.72384.0322c.63398.0561 1.16683.13575 1.58833.24023s.7279.21708.91203.3448c.18916.12814.28396.24052.28209.33736s-.0613.24399-.17854.44136l-.13235.22815m-6.1904-1.87843-2.50963,4.43115c-.86339-.0993-1.69467-.20039-2.4939-.3023l.46823-.86191c-.32572.13746-.59532.2149-.81144.23253s-.46459.011-.74165-.026c-.40233-.0537-.70219-.14694-.90825-.27932-.2024-.13193-.30495-.28048-.31184-.44564s.0722-.40968.23735-.72745c.29312-.56695.58793-1.13405.88422-1.70132 .13679-.2618.27173-.45228.40534-.57139s.3531-.21217.66312-.27321 .65418-.0705 1.02361-.0239c.29867.0377.55973.10517.78069.20262s.4098.2269.55261.38691l.22128-.32506c.81791.0967 1.66465.19171 2.54026.28432zm-3.16228.76387c.0957-.17089.13117-.28999.10644-.35723s-.10267-.10873-.24434-.12595-.24563-.002-.32479.0442-.16304.16342-.26374.35003c-.31203.57415-.62305,1.14801-.93284,1.72162-.1108.20788-.15812.34291-.14227.40512s.0966.0995.243.11811c.13846.0176.248.001.32748-.0489s.17267-.17444.27871-.36662l.9524-1.74041m-2.9277-1.49971c-.61467.5747-1.2171,1.14883-1.8059,1.7228-.00021.72054.00056,1.44118.002,2.16189l-.93643-.13669-.73781-.0783c.0596-.53593.12403-.99575.19342-1.3794-.25332.46038-.49333.89983-.71813,1.31857-.31401-.0379-.58224-.0733-.80469-.10495 .29068-.67903.62952-1.35401 1.01268-2.0258l.11947-1.95831 1.05322.12319c-.11376.82796-.18436,1.29737-.21106,1.40831 .23782-.4069.44257-.73246.60497-.97727 .128-.14459.23422-.25936.31813-.34431l1.90949.27021m-4.42948,1.5612c-.38519-.0526-.66409-.097-.83671-.129-.0474.29042-.0925.58107-.13542.87193-.027.18241-.0405.30069-.0419.3547s.008.0832.0288.0874c.0264.005.0524-.0253.0744-.0921s.0524-.20311.0884-.4031c.0317-.17678.0643-.35347.0976-.5301 .16126.0274.37975.0609.65547.0989l-.079.29456c-.064.24675-.12304.43487-.17679.5644s-.13572.2643-.23453.40534-.19721.24306-.28633.30703-.17481.0847-.23858.0708-.0855-.0598-.0919-.14141 .004-.18755.0157-.32029 .0248-.28096.0361-.43911 .0247-.39188.0444-.69464c.0257-.39581.056-.79114.0908-1.18601 .0313-.35507.0626-.63306.10141-.83295s.0901-.35174.17377-.44689 .1927-.13488.33458-.11266c.17351.0272.34372.11928.4652.27134s.19916.33788.20851.56138-.0398.52545-.14861.91177l-.14539.5288m-.57682-.7592c.0198-.0978.0399-.19548.0603-.29319 .042-.20768.0646-.34255.0661-.40475s-.0152-.096-.0476-.10124c-.0401-.006-.0676.0161-.0861.0672s-.0483.18665-.0888.41299l-.053.29392 .14907.0251m-.23424-2.42762c-.16939,1.65015-.26257,3.3083-.2699,4.97543 .0996.006.26843.0226.50664.0525-.16219-1.68891-.23027-3.36755-.21389-5.03695-.0716-.008-.0793-.004-.0228.009zm-.0248.0146c-.0341.3927-.0674.7856-.10004,1.17869 .0578-.11797.11678-.20449.17588-.25934 .0591-.0569.11829-.0832.17636-.0786 .0479.004.0882.0214.12175.0525l-.0471.032c-.0506.046-.0828.1167-.10212.21092s-.0299.1877-.0296.28057 .006.29181.0254.59759c.0331.52352.0751,1.04803.12622,1.57354l-.0211.29011c-.0213.29814-.043.52004-.0661.66581-.0231.14372-.0618.26729-.12101.37206s-.12622.15264-.20761.15032c-.0584-.002-.11365-.0343-.16446-.0983s-.0972-.15944-.13785-.28659l-.0608.30927c-.18739.003-.39718.0107-.62937.0228 .13114-1.67418.26866-3.34586.41634-5.01462 .23873-.005.45382-.005.64527.001m-.002,2.06381c.0171-.2112.0226-.34878.016-.41279-.007-.066-.0268-.0998-.0617-.10082s-.0592.0272-.0747.0845c-.0146.0553-.031.19685-.0491.42485-.0468.58748-.0921,1.17536-.13605,1.76362-.0171.22009-.022.361-.015.42268s.0297.0924.0642.0925c.0354.00011.0601-.0315.0754-.0951s.0314-.21651.0488-.45884c.0427-.57396.0867-1.14753.13217-1.7207m77.30616-17.48981-1.24344,1.65031 .27923,2.45973-1.82919.0253-.0678-1.78346-.52461,1.79165-1.89973.0262c.48963-1.67282.97848-3.34563 1.46655-5.01843l1.89682-.0262c-.20445.70259-.40905,1.40518-.61378,2.10778l.93925-1.21081 1.59677-.0221m-4.49514-.83937-.18994.65402-1.95356.027 .19034-.65403zm-.267.90515-.95119,3.2547c-.11185.38229-.19999.64181-.26436.77853-.0613.13463-.16816.25341-.32071.35637s-.332.18364-.54782.23601-.52598.0814-.93044.087l-.73369.0101 .19098-.65711c.2257-.003.3572-.0214.39448-.0548s.11514-.24034.22411-.62054l.98494-3.3632zm-3.4393,3.16557-.13184.44947c-.0667.23554-.165.42933-.29518.58138s-.31545.28219-.55585.39047-.49211.18174-.76457.22049l.10475-.35955c.20939-.0729.34329-.16836.40172-.28649l-.31975.004 .28678-.9826zm-.70292-3.10835-1.24789,1.65036 .27253,2.4598-1.82919.0253-.063-1.78351-.52948,1.7917-1.89973.0262c.49416-1.67287.98755-3.34572 1.48016-5.01857l1.89682-.0262c-.20636.70261-.41286,1.40523-.6195,2.10784l.94251-1.21084 1.59679-.0221m-4.37234.0604c-.6991,1.37521-1.39909,2.75044-2.09998,4.12567l-2.2011.0304-.26365.0009c.0784-1.29768.15694-2.59532.23569-3.89294 .004-.0681.009-.13628.0131-.20441l1.6954-.0234c-.11756.99775-.23524,1.99549-.35302,2.99324 .10489-.2196.33274-.75785.68317-1.61475 .19674-.47813.3951-.9419.59504-1.39127zm-6.69732-.83276c-.10765.37506-.21537.75013-.32315,1.12521 .18777-.0996.38-.17455.57665-.22479s.39918-.0758.60757-.0766c.32011-.001.5763.0534.76946.16381s.29297.23874.30006.38483c.007.14404-.0434.40866-.15142.79389-.26728.9425-.53478,1.88511-.80266,2.82781l-1.8367.008 .82827-2.88743c.0677-.23904.0938-.39249.078-.46035s-.0843-.10152-.20587-.10098c-.11245.00049-.19887.0359-.25914.10612s-.11691.20945-.17906.41762c-.27937.97587-.55927,1.9518-.83986,2.92778l-1.86765.009c.48717-1.66863.97163-3.33726 1.45419-5.00577l1.85131-.008m-5.19502.92503-.14257.3773c.18385-.15102.38497-.26404.60317-.33907s.46128-.11625.71966-.11741c.32376-.001.57237.0478.74685.1479 .17756.10004.27303.22722.28682.38154s-.0317.40772-.1369.76638c-.27921.95849-.55923,1.91699-.84023,2.87548l-1.89936.008c.28208-.94698.563-1.89401.84291-2.84108 .0821-.28237.11812-.45439.10818-.51612s-.0791-.0923-.20757-.0917-.23022.0369-.2861.10924-.12967.2599-.22135.56903c-.27352.92433-.54806,1.84861-.82377,2.77284l-1.93009.006c.41496-1.36672.82694-2.73366 1.23636-4.10077l1.94399-.007m-2.35569-.89338-.19535.65206-1.99677.004 .19865-.65173 1.99347-.004zm-.27466.90238-.98407,3.24436c-.11626.38104-.20785.63953-.27455.77549-.0635.13391-.17382.2514-.33125.35247-.1542.10312-.3427.17948-.56582.22903s-.54394.0744-.96411.0743l-.76395-.00056 .20336-.65435c.23513.00021.37181-.0162.41076-.0491s.12109-.23874.2363-.61747c.34736-1.11664.69237-2.2335 1.03525-3.35054l1.99808-.004zm-5.02518-.90001-.35626,1.12291c.20327-.0982.4111-.17178.62349-.22074s.43098-.0733.65578-.073c.34532.00046.6215.0562.8296.16743s.31551.23987.32271.38603c.007.14409-.0482.4086-.1664.7935l-.88254,2.82452-1.9947-.005c.3085-.96005.6149-1.92032.91936-2.8808 .0748-.23857.10398-.39185.0874-.45982s-.0903-.1021-.22157-.10245c-.12139-.00033-.21492.0344-.28052.10417-.0623.0698-.12782.20852-.19662.41617-.30954.97359-.62114,1.94694-.93495,2.92006l-2.02534-.0126c.54961-1.66182 1.09206-3.32447 1.62814-4.98786 .66761.003 1.33175.006 1.9924.007m-5.33247-.0333-.37622,1.11961c.20995-.0964.42435-.16822.64322-.21542s.44389-.0698.67511-.0677c.35518.003.63884.061.8521.17371s.32285.24213.32918.38831c.006.14411-.0526.40818-.17719.79215-.30821.93935-.61864,1.87845-.93142,2.81725l-2.0566-.0219c.32697-.95703.65125-1.9144.97301-2.87208 .0791-.23788.11042-.39089.094-.45898s-.092-.10283-.22706-.10431c-.12489-.001-.22144.0326-.28955.10173-.0647.0693-.13341.20736-.20609.41436-.32744.97062-.65754,1.94091-.99045,2.91084l-2.0871-.0327c.58448-1.6556 1.16004-3.31238 1.72746-4.97024l2.04764.0254m-3.10601.85984c-.3622,1.04571-.72779,2.09097-1.09695,3.13574-.14844.42325-.26225.69685-.34072.82087s-.24394.24947-.49746.3822-.57005.23418-.9609.29747c-.3874.0654-.85785.0915-1.41289.0774-.68231-.0174-1.20904-.1002-1.57574-.24673-.36676-.14446-.4823-.41258-.34647-.80372l2.08265.0573c-.0675.17942.0116.27203.23697.27757 .162.004.27863-.021.3501-.0748s.14415-.16843.20743-.34395l.11148-.30613c-.21567.0917-.43487.15958-.65752.20351s-.43993.0631-.66227.0573c-.38469-.01-.68639-.0637-.90373-.16036-.2138-.0965-.34016-.21863-.37872-.36589s-.006-.35831.0969-.62705l.54732-1.47263c.14362-.38503.36471-.65887.66261-.8219s.6941-.23835 1.17724-.227c.26417.006.49242.0433.68526.11129 .19632.0681.35546.16719.47774.29735l.25945-.30335c.64914.0132 1.29522.0251 1.93825.0356m-2.47175,1.03989c.0659-.18587.0889-.30474.069-.35663s-.087-.079-.21185-.0818-.21753.0251-.28821.0831-.13725.16979-.19992.34123c-.16415.45519-.32903.91027-.49464,1.36526-.0669.18157-.0924.30032-.076.35629 .0199.054.0912.0825.21385.0854 .14013.003.24227-.0273.30654-.0917 .0678-.0643.14416-.21177.22897-.44242l.45221-1.25884m-2.36485-2.04533-.23098.62662c-.43776-.012-.70188-.007-.79044.0147s-.15371.085-.19556.1949l-.0459.1283 .89634.0258-.23821.64169c-.16885-.005-.3379-.01-.50716-.0146-.41365,1.10444-.83198,2.20822-1.25522,3.31129-.72321-.0233-1.45027-.0487-2.18117-.0762 .43475-1.10058.86428-2.20192 1.28884-3.30398l-.44387-.0157 .24729-.6397 .44253.0154c.10136-.26621.18522-.4435.25194-.53185s.1755-.16495.32614-.23001 .35007-.11518.5872-.14479 .59836-.037 1.07154-.0234l.77671.0216m-4.28516,2.31122-2.0595-.0824c.063-.15485.12594-.30972.18875-.46461 .065-.162.0841-.2724.0577-.33118-.0227-.0607-.0972-.0937-.22345-.0991s-.22146.0162-.28524.0649-.13046.16114-.20019.33725c-.25573.63338-.51327,1.2665-.77268,1.89934-.0619.14341-.0746.25304-.0378.32887 .0369.0738.11938.11362.24746.11941 .15004.007.26694-.0262.35078-.0986s.16885-.21293.25492-.42131l.19103-.4798 1.95365.0793c-.13135.32237-.24745.56394-.34789.72476s-.28787.31928-.56359.48114c-.27202.15997-.5923.27653-.9613.34931s-.79379.0953-1.2862.0726c-.62838-.029-1.10388-.11223-1.42285-.24769s-.51148-.31653-.57721-.53631c-.062-.22163-.009-.52799.1564-.91922l.47664-1.14094c.1432-.341.3124-.59523.50756-.76281s.52192-.30918.97817-.42596 .97619-.1655 1.54837-.14129 1.02422.11116 1.36962.26242 .54959.33277.60263.54473 .005.50771-.14581.8871m-7.98133-.65607c-.80524-.0616-1.5935-.12715-2.36482-.19592l.11049-.21325c.0945-.18165.13091-.29824.10946-.34971s-.11598-.0877-.29571-.10383c-.14552-.0131-.26694-.00037-.3649.0381-.0936.0369-.16361.0996-.21052.18822-.0628.12022-.0907.2106-.0835.27119s.0818.12958.2247.21293c.14719.0838.46849.21564.97585.39375 .67808.23624 1.11161.43764 1.27876.60778 .16265.16979.16837.39825.0145.68532-.17011.32088-.39541.55573-.6738.70414-.27375.14672-.65592.24589-1.13947.29622s-1.01892.0448-1.61199-.0124c-.65708-.0634-1.18106-.16673-1.58251-.3081s-.63904-.30188-.72123-.48057-.0311-.42978.13993-.75483l.10058-.1878c.72216.0781 1.46171.15398 2.2187.227-.0444.0825-.0889.16504-.1334.24755-.11066.21045-.15459.34983-.13154.41822s.11914.11089.28941.12722c.18307.0176.32238.009.41662-.0256 .0988-.0362.1851-.1222.25871-.25797 .10018-.18701.11362-.30871.0415-.36497s-.5055-.24216-1.26505-.56167c-.63817-.27024-.98353-.49448-1.05891-.67003s-.0532-.376.0648-.5953c.16499-.3116.37087-.53209.61959-.66172s.59873-.21712 1.05583-.25749 .97343-.0342 1.54211.0163c.56437.0502 1.036.12463 1.408.22499s.64125.20992.80245.33577c.16567.1262.24816.23758.24566.33437s-.0561.24442-.16116.44277l-.11872.22928m-5.51797-1.81973c-.77729,1.48567-1.55821,2.96817-2.339,4.44808-.7943-.0922-1.56551-.18653-2.31367-.28224l.44529-.86466c-.30551.13984-.55908.21927-.76239.23852s-.43736.0145-.69915-.0204c-.38016-.0507-.66501-.1417-.86072-.2725-.19222-.13037-.28963-.27805-.29525-.44302-.005-.16699.0716-.40978.23133-.72841l.85331-1.706c.13169-.26254.26097-.45382.38833-.5738s.33575-.21457.62814-.2779c.29622-.0649.61542-.0754.96002-.0318 .27862.0353.52086.10064.72509.19622 .20795.0961.37783.22335.50834.38204l.20747-.32655c.75414.0898 1.52841.1776 2.32286.26246zm-2.90785.78973c.0903-.17149.12415-.29075.10174-.35774s-.0941-.10779-.22534-.12385-.22806-1e-005-.30209.0467-.15312.16456-.24854.35177l-.88606,1.72716c-.10551.20853-.15101.34378-.13665.40581s.0898.0987.22669.11613c.12944.0165.23191-.00073.30654-.0514s.16265-.17561.26312-.36843l.90051-1.74626m-2.73318-1.47567c-.58779.57861-1.16788,1.15641-1.73889,1.73381-.004.71988-.007,1.43983-.009,2.15986l-.90488-.13034-.80667-.0944c.058-.53624.1227-.996.19418-1.37925-.27626.45597-.5431.89093-.799,1.30509l-1.01946-.13087c.3692-.67099.77524-1.33796 1.21428-2.00179 .0313-.65392.0623-1.30791.093-1.96197l1.20588.14891c-.11375.82797-.18493,1.29725-.21273,1.40793 .25537-.40305.47187-.72543.64265-.96772 .12492-.14524.22838-.26056.31003-.34595 .5936.0858 1.20358.17152 1.82996.25666m-4.65675,1.52631-1.30088-.16952c-.0677.28895-.13352.57811-.19747.86748-.0403.18149-.058.29947-.0542.35385 .005.0545.0304.0847.0784.0909 .0596.008.10935-.0211.14659-.0868s.0829-.20079.13238-.39975c.0435-.17586.0877-.35165.13249-.52737l.98131.12852-.0935.29302c-.0757.24552-.14795.43227-.21656.56031s-.17663.26022-.31569.39754-.28648.23504-.43605.29409-.31148.0739-.47309.0531-.26899-.0722-.35207-.15858-.13094-.19575-.15715-.33069c-.0252-.13691-.0341-.28435-.0284-.44283s.0313-.3915.0775-.69274c.0613-.39376.12658-.78704.19564-1.17985 .062-.35324.13765-.62855.23215-.82493s.22046-.34342.39135-.43247 .37016-.12205.5992-.0926c.2801.036.52128.13495.69162.29199s.27519.34601.29483.57068-.0322.5263-.15877.91063l-.16968.52611m-.87788-.78718 .0793-.29164c.0546-.20664.0818-.34112.0802-.40358s-.0304-.0973-.0845-.10427c-.067-.009-.1135.0124-.14192.0627s-.0707.18492-.12627.41011c-.0248.0974-.0493.19489-.0737.29237l.26685.0343m-.80082-2.46681c-.31028,1.64165-.55649,3.29125-.72898,4.94981-.1125-.005-.17568.00049-.18953.0193 .0341-1.68023.15022-3.35023.33865-5.01102 .14926.003.34255.0179.57986.0419zm-1.55963-.0407c-.0596.3933-.11819.78679-.17583,1.18048 .098-.11894.1996-.20645.30376-.26232s.21089-.0853.31918-.0818c.0894.003.16689.0197.23317.0501l.0152.0347c.0174.049.0313.12178.0379.21717s.009.18948.006.28218-.0139.29088-.0293.59509c-.0266.52072-.0456,1.04242-.0566,1.56513l-.0415.29085c-.042.29857-.086.52095-.13299.66723-.0469.14424-.12664.2687-.24231.37474-.11427.10403-.24243.1553-.38795.1545-.10438-.00057-.19958-.0322-.28478-.0954s-.16041-.15784-.2248-.28438l-.10247.31037-.95019.0319c.21728-1.67681.44568-3.35109.68896-5.02242 .35796-.009.69963-.0116 1.02503-.008m-.0128,2.06407c.031-.21153.0411-.3492.0299-.41312-.0113-.0659-.0464-.0993-.10618-.0998s-.10097.0282-.1274.0858c-.0249.0555-.0536.19739-.0857.42574-.0832.58836-.16431,1.17713-.24356,1.76628-.0307.22044-.0405.36148-.0298.42306s.0475.0919.10508.0915 .1015-.0325.12817-.0964 .0558-.21711.088-.4598c.0785-.57483.15899-1.14927.24153-1.7233m77.19571-17.49574-1.23616,1.65023 .27781,2.45974-1.81867.0251c-.0226-.59449-.0451-1.18898-.0676-1.78347l-.52147,1.79162-1.88879.0261c.4867-1.67278.97262-3.34555 1.45777-5.01832l1.8859-.0261c-.20324.70258-.40661,1.40516-.61011,2.10773l.93375-1.21075 1.58758-.0219m-4.4693-.83964-.18881.654-1.94229.0269 .1892-.654zm-.26539.90512-.94553,3.25463c-.11118.38229-.19878.6418-.26277.77852-.0609.13462-.16719.25341-.31884.35635s-.33008.18363-.54466.23598-.52294.0813-.92508.0869l-.72946.0101 .18984-.6571c.2244-.003.35513-.0214.3922-.0548s.11447-.24033.22278-.62052l.97907-3.36313zm-3.41931,3.16536-.13106.44945c-.0663.23554-.16402.42932-.29343.58136s-.31363.28219-.55263.39046-.48929.1817-.76017.22044l.10414-.35956c.20817-.0729.3413-.16834.39938-.28645l-.31792.004 .28509-.98258zm-.69905-3.10839-1.24061,1.65028 .2711,2.45982-1.81866.0252-.0628-1.78352-.52634,1.79167-1.88879.0261c.49124-1.67283.9817-3.34566 1.47138-5.01848l1.88589-.0261c-.20514.70259-.41041,1.40519-.61582,2.10779l.93702-1.21078 1.58757-.022m-4.34713.0601c-.69501,1.37517-1.3909,2.75035-2.08769,4.12554l-2.18824.0303-.2676.00061c.0797-1.29848.15953-2.59693.23962-3.89536 .004-.0672.009-.13446.0128-.2017l1.68563-.0233c-.11683.99774-.23378,1.99548-.35085,2.99322 .10427-.2196.3308-.75783.67916-1.61471 .1956-.47813.39278-.94188.59155-1.39123zm-6.69882-.83532-.32561,1.12493c.18908-.0995.3828-.17425.58112-.2243s.40276-.0754.61328-.0761c.32339-.00098.58264.0539.77821.16455s.29672.23905.3039.38514c.007.14405-.044.40861-.15349.79372l-.81233,2.827-1.85119.007c.27816-.96233.55604-1.92459.83381-2.88677 .0683-.23898.0945-.39242.0787-.46028s-.085-.10159-.20743-.10115c-.11327.0004-.20028.0357-.26095.10591s-.11768.20935-.18022.41747c-.28112.97565-.56244,1.95138-.8441,2.92717l-1.86981.008 1.45518-5.00496c.62228-.002 1.24262-.005 1.861-.007m-5.19867.92219-.14163.37725c.18262-.15097.38254-.26393.59966-.3389 .22019-.077.45914-.11609.71672-.11715 .32274-.001.57097.0481.74524.14821 .17736.10014.27282.22737.28661.38168s-.0317.40771-.13682.76632c-.27898.95835-.55845,1.91673-.83856,2.8751-.62726.003-1.25687.005-1.88884.007 .27977-.94692.5587-1.89388.83695-2.84087 .0816-.28234.11744-.45436.10755-.51608s-.0786-.0923-.20638-.0918-.22878.0369-.28428.10916-.12875.25987-.21975.56899l-.81666,2.77269-1.90727.005c.40895-1.36675.81557-2.73369 1.22032-4.10077l1.92714-.007m-2.33412-.89372-.1929.65206-1.96673.004 .19516-.65177 1.96447-.004zm-.27116.90238-.96996,3.24441c-.11444.38105-.20457.63954-.2702.77553-.0625.1339-.17102.25142-.32583.35251s-.33689.17954-.55599.22915-.53402.0746-.9457.0746l-.74782-.0003 .19888-.65443c.23007.00013.36397-.0164.40211-.0493s.11858-.23876.23145-.61754c.3403-1.11674.67869-2.23369 1.01542-3.35081l1.96764-.004zm-4.93075-.89875-.34728,1.12308c.1981-.0983.40078-.17199.60807-.22105s.42078-.0735.6405-.0733c.33754.00033.60789.056.81171.16713s.30913.23979.31621.38594c.007.14408-.0472.40861-.16298.79355l-.86355,2.82483-1.94592-.004c.30024-.96022.59873-1.92065.89561-2.88128 .073-.23861.1014-.39191.0853-.45987s-.0881-.10204-.21608-.10234c-.11834-.00026-.2095.0345-.2734.10431s-.12453.20859-.19153.41628c-.30142.97375-.60456,1.94729-.90958,2.9206l-1.96421-.0111c.53202-1.66224 1.05787-3.3253 1.57837-4.98904 .64818.003 1.29446.005 1.93882.006m-5.16966-.0295-.36273,1.11997c.20223-.0966.40886-.16865.61995-.21605s.42824-.0702.65155-.0683c.34303.003.61737.0605.82371.173s.31247.24187.31859.38805c.006.14411-.0509.40822-.17162.79229-.29842.93959-.59875,1.87893-.9011,2.81801l-1.98284-.02 .9377-2.87302c.0763-.23796.10652-.391.0907-.45907s-.0887-.10274-.2188-.10409c-.12032-.001-.2133.0328-.27891.10201-.0624.0693-.1285.2075-.19851.41456-.31543.97095-.63318,1.94158-.95339,2.91185l-2.001-.0303c.5602-1.6563 1.11249-3.31374 1.65766-4.97221l1.96907.0232m-2.98399.8632c-.34738,1.04613-.69775,2.09182-1.05129,3.13705-.14217.42344-.25109.69717-.32614.8213-.075.12207-.23322.24977-.47529.38285-.23877.13519-.54407.23494-.91648.29878-.36912.066-.81696.0927-1.3443.0794-.64826-.0163-1.14743-.0983-1.49461-.24424-.34722-.14385-.45604-.41176-.32688-.80311l1.97506.054c-.0644.17951.0107.272.22495.27721 .154.004.26499-.0214.33303-.0753s.13731-.16864.19771-.34424l.1064-.30629c-.20538.092-.41395.16021-.62567.20446s-.41816.0638-.62927.0583c-.36523-.009-.65124-.0626-.85711-.15893-.20252-.0963-.32199-.21807-.35831-.36526s-.005-.35829.0927-.62716l.5206-1.47347c.13665-.38525.34658-.65942.62945-.82293 .28617-.16339.65912-.23941 1.11859-.22877 .25123.006.46847.0425.65206.11029 .18689.0678.33847.16669.45494.29667l.24763-.30369 1.85225.0331m-2.36174,1.04309c.063-.18595.085-.30485.0661-.35671s-.0829-.0789-.20178-.0815-.20719.0254-.27452.0835-.13083.16998-.19062.3415c-.15668.45542-.314.91073-.47198,1.36595-.0638.18167-.0882.30045-.0726.35639 .0189.0539.0866.0824.20331.0851 .13331.003.23057-.0277.29182-.0921s.13743-.21197.2184-.44274l.43191-1.25945m-2.24563-2.04171-.21979.62696c-.41492-.0113-.66481-.006-.74865.016s-.14559.0852-.18535.19523l-.0436.12837 .84865.0243-.22659.64204c-.15996-.005-.32002-.009-.48021-.0138-.39313,1.10509-.7905,2.20952-1.19232,3.31327l-2.05683-.0723c.41164-1.10132.81852-2.20338 1.22088-3.30616-.13932-.005-.27871-.01-.41819-.0149l.23425-.64011c.1391.005.27812.01.41706.0146 .0961-.26637.17549-.44381.23859-.53226s.16586-.16527.30813-.23058c.14569-.0672.33064-.11579.55472-.14582 .22741-.0299.5655-.038 1.01343-.0252l.73585.0204m-4.05144,2.31856c-.64293-.0242-1.28771-.0503-1.93431-.0783 .0595-.15497.11894-.30995.17825-.46495 .0614-.16212.0796-.27255.055-.33128s-.0909-.0934-.20924-.0986-.20759.0166-.26748.0655-.12269.16139-.18851.33762c-.24137.63386-.4844,1.26745-.72915,1.90078-.0583.14352-.0705.25316-.0364.3289 .0343.0737.11141.11337.23133.11889 .14048.006.2501-.0266.32887-.0993s.15885-.21325.24009-.42179l.18044-.48016 1.8344.0755c-.1243.32261-.23404.56438-.32887.72538s-.27143.31981-.53088.4822-.55699.27767-.90335.35118c-.34283.0716-.74456.0969-1.20541.0752-.58809-.0277-1.03202-.10986-1.32937-.2446-.29724-.13682-.47623-.31536-.53671-.53497s-.007-.52792.14929-.91946l.44878-1.14186c.13484-.34127.29362-.59584.47639-.76384s.48833-.31029.91531-.42802 .91372-.16755 1.45009-.14449c.53298.0229.96072.109 1.28501.25967 .32763.15077.5161.33172.56555.54355s.003.50768-.13915.88732m-7.29023-.61771c-.69709-.0528-1.38428-.10984-2.06159-.17051l.0994-.2142c.085-.18247.11819-.29933.0999-.35053-.0143-.0529-.10078-.0864-.25865-.10064-.12782-.0115-.23491.002-.32168.0419-.0829.0378-.1454.10119-.18781.1902-.0567.12075-.0824.21133-.0768.27178s.0709.12862.19599.21044 .41092.21061.85378.38323c.59186.22891.96665.42546 1.11036.59367s.14252.3961.006.6846c-.15128.32243-.35002.55948-.59488.71069s-.5764.25256-1.00255.30781c-.42209.0536-.89912.0552-1.42587.004-.58358-.0568-1.05202-.15502-1.41134-.29241s-.5725-.29553-.64484-.47326-.0234-.42904.1346-.75535l.0928-.18855 1.98351.20521-.12128.24863c-.10071.21135-.14137.35102-.12162.41912s.10483.1096.25586.12421c.16239.0157.28593.006.36979-.0297 .0878-.0372.16518-.12395.23175-.26032 .0906-.18786.10381-.30959.0407-.36506s-.44307-.23674-1.11653-.54843c-.56583-.26365-.87426-.48437-.94003-.65901-.0655-.17668-.0436-.37508.0648-.5953 .15161-.31287.33872-.53513.56248-.66706s.53713-.2228.94304-.26777 .86183-.0441 1.36036.00036c.49476.0442.90518.1135 1.2277.20975 .32266.0942.55455.20274.69286.32673s.21232.23465.20922.33139-.0509.24486-.14379.44419l-.10508.23039m-4.84552-1.76102c-.71535,1.49158-1.43939,2.97972-2.16837,4.46501-.72522-.085-1.43634-.17267-2.13342-.26217l.42233-.86741c-.28531.14223-.52284.22363-.71335.2445s-.4101.018-.65663-.0149c-.35798-.0477-.62785-.13635-.8132-.26565-.18204-.12881-.27428-.27564-.27864-.4404-.004-.16679.0709-.40989.22531-.72938l.82238-1.71069c.12658-.26328.25023-.45536.37132-.57621s.31841-.21696.59317-.28257c.27838-.0672.57668-.0804.89645-.0397 .25853.0329.48195.0961.66946.18981s.34586.21981.4641.37717l.19361-.32803 2.10548.2406zm-2.65343.81563c.0848-.1721.11713-.29153.0973-.35823s-.0855-.10685-.20637-.12176-.21049.002-.27939.0493-.14319.16569-.23335.35351c-.2793.57793-.55913,1.15549-.83927,1.73271-.10023.20917-.14391.34466-.13103.4065s.083.0979.21039.11415c.12043.0154.21582-.003.28561-.0539s.15261-.17678.24754-.37024c.28342-.58365.56637-1.16767.84862-1.7521m-2.5387-1.45163c-.56091.58252-1.11867,1.16399-1.67188,1.74482-.007.71921-.0137,1.43848-.0195,2.15782l-.87346-.124-.87547-.11053c.0565-.53653.12139-.99624.19495-1.3791-.2992.45157-.59288.88204-.87987,1.29162-.43079-.0551-.8422-.10775-1.23425-.15679 .44773-.66295.92098-1.32192 1.4159-1.97778 .0227-.65514.0449-1.31035.0665-1.96564l1.35857.17464c-.11376.82796-.18551,1.29712-.21441,1.40755 .27287-.3991.50108-.71824.68022-.95799 .12191-.14596.22267-.26189.30209-.34776l1.75042.24311m-4.88408,1.49141-1.76506-.21003-.25952.86303c-.0536.18054-.0754.29823-.0664.35298s.0531.0863.12789.0944c.0929.0101.16629-.017.21875-.0815 .0547-.0663.11344-.19848.17637-.3964l.16733-.52464 1.30716.15814-.10799.29149c-.0874.24427-.17285.42967-.25632.55621s-.21754.25614-.39686.38975-.37576.22701-.58577.28115-.44816.0631-.70762.0354c-.2516-.0268-.45245-.0846-.61219-.17575s-.26586-.20392-.33001-.34108-.093-.28775-.0928-.44654 .0379-.39113.11061-.69085c.097-.3917.19718-.78293.30049-1.1737 .0928-.35139.21272-.62403.36288-.8169s.3508-.33509.60896-.41804 .54763-.10923.86383-.0726c.3867.0448.69885.15062.91803.31264s.35122.35415.38117.57999c.0327.22413-.0246.52715-.16892.90948-.0651.17441-.12974.34889-.19396.52342m-1.17898-.81516 .0983-.29009c.0672-.20561.0989-.3397.0943-.40241-.005-.0627-.0455-.0986-.12145-.1073-.0938-.0108-.15934.009-.19776.0583s-.0931.18318-.16372.40723l-.0943.29081 .38462.0435m-1.36741-2.506c-.45118,1.63314-.85043,3.2742-1.18808,4.92417-.32457-.0163-.61981-.0216-.88573-.014 .23045-1.67154.53073-3.33291.89121-4.98509 .37018.0143.76438.0399 1.1826.0749zm-3.09443-.096c-.0851.39389-.16898.78798-.25161,1.18226 .1383-.1199.28241-.20839.43162-.26531s.30349-.0874.46201-.085c.13085.002.2456.018.34454.0478 .0274.0102.0532.0227.0775.0375 .0854.052.14539.12687.17789.22344s.0476.19123.0408.28377-.0343.28994-.084.59261c-.0864.51805-.16627,1.03706-.23942,1.55708l-.0619.29121c-.0626.29901-.12903.52187-.19982.66867-.0708.14476-.19147.2701-.36362.37741s-.35862.15793-.5683.15867c-.15038.00053-.2855-.0301-.40509-.0924s-.22364-.15625-.31176-.28216l-.14413.31145c-.41416.009-.83784.0227-1.27102.041 .30342-1.67943.62269-3.3563.96158-5.0302 .47717-.0118.94543-.0179 1.40477-.0176m-.0237,2.06432c.0449-.21186.0597-.34965.0438-.41344-.0159-.0659-.066-.0989-.15071-.0987s-.14268.0292-.18011.087-.0761.19794-.12229.42662c-.11959.58925-.23655,1.17891-.35104,1.76896-.0444.22078-.059.36194-.0446.42343 .0166.0614.0653.0915.14595.0904s.14289-.0336.18097-.0977 .0803-.21772.12718-.46076c.11442-.5757.23134-1.151.35089-1.72589m77.08534-17.50166-1.22888,1.65014 .27637,2.45976-1.80814.025-.0673-1.78347-.51834,1.79157-1.87786.026c.48378-1.67275.96679-3.34549 1.44901-5.01823l1.87495-.026c-.202.70257-.40414,1.40513-.60641,2.1077l.92826-1.21069 1.57836-.0219m-4.44344-.83992-.18767.654-1.93104.0267 .18806-.654zm-.2638.90512-.93983,3.25456c-.11052.38228-.19761.64178-.26122.7785-.0606.13462-.16619.2534-.31697.35633s-.32816.1836-.54149.23595-.51992.0813-.91972.0868l-.72525.01 .18871-.6571c.2231-.003.35309-.0214.38993-.0548s.11379-.24032.22145-.6205l.9732-3.36308zm-3.3993,3.16513-.13027.44944c-.0659.23555-.16306.42933-.29172.58136s-.31179.28215-.5494.3904c-.23452.10822-.48644.18168-.75575.2204l.10351-.35955c.20696-.0729.33931-.16831.39706-.28643l-.31607.004 .28336-.98256zm-.69518-3.10843-1.23333,1.6502 .26966,2.45984-1.80813.025-.0625-1.78352-.52319,1.79163-1.87786.026c.48831-1.6728.97584-3.3456 1.4626-5.01838l1.87496-.026c-.20391.70258-.40795,1.40517-.61214,2.10776l.93152-1.21073 1.57838-.0219m-4.32193.0599c-.69091,1.37513-1.38271,2.75026-2.0754,4.12541l-2.17569.0301-.27127.00032c.0809-1.29781.16195-2.5956.2433-3.89336 .004-.0678.009-.1356.0128-.2034l1.67585-.0232c-.11611.99773-.23234,1.99546-.34869,2.99319 .10366-.21958.32885-.75782.67516-1.61467 .19444-.47811.39046-.94184.58805-1.39119zm-6.70033-.83789c-.10939.37488-.21874.74977-.32806,1.12468 .19039-.0994.38557-.17394.58558-.22384s.40633-.0751.61899-.0755c.32668-.00067.58897.0545.78694.1653s.30049.23935.30774.38546c.007.14405-.0447.40856-.15556.79356-.27436.94192-.54831,1.88399-.82199,2.82617l-1.86569.005 .83935-2.8861c.0688-.23893.0953-.39233.0793-.46022s-.0856-.10165-.209-.10132c-.1141.00031-.2017.0356-.26277.10571s-.11845.20925-.18139.41732l-.84833,2.92655-1.87195.007 1.45615-5.00415 1.8707-.006m-5.20232.91936-.1407.37721c.18141-.15092.38013-.26383.59614-.33874 .21908-.0769.45703-.11592.71379-.11689 .32173-.001.56956.0483.74364.14854 .17715.10021.2726.22749.28638.38182s-.0317.40768-.13673.76624l-.83686,2.87472c-.62532.002-1.25143.005-1.87832.007 .27745-.94687.5544-1.89376.83099-2.84066 .0812-.28232.11675-.45434.10691-.51606s-.0782-.0923-.20519-.0919-.22733.0368-.28245.1091-.12786.25983-.21816.56892l-.80956,2.77254-1.88445.005c.40293-1.36678.80422-2.73372 1.2043-4.10077l1.91027-.006m-2.31256-.89407-.19041.65206-1.93671.004 .19168-.65181 1.93544-.004zm-.26765.90239-.95585,3.24447c-.11263.38106-.20129.63957-.26585.77555-.0615.13392-.16823.25145-.32039.35256s-.33109.1796-.54618.22926-.52407.0747-.92726.0748l-.73173-3e-005 .19441-.65451c.22502,5e-005 .35614-.0165.39346-.0494s.11607-.2388.2266-.6176c.33324-1.11685.66502-2.23389.99558-3.35108l1.93721-.004m-4.83631-.89752-.33828,1.12327c.19292-.0984.39044-.1722.59262-.22135s.41057-.0737.62523-.0736c.32975.00018.59428.0558.79382.16683s.30277.23969.30972.38582c.007.14409-.0462.40864-.15957.79361l-.84455,2.82514-1.89714-.003c.29199-.96039.58256-1.92099.87186-2.88176 .0711-.23866.0988-.39196.0831-.45992s-.0859-.102-.2106-.10223-.20406.0346-.26629.10445-.12122.20866-.18641.41639c-.29332.97392-.58801,1.94765-.88423,2.92115l-1.90308-.01c.51441-1.66268 1.02368-3.32613 1.5286-4.99024l1.88524.005m-5.00684-.0256-.34922,1.12034c.19449-.0969.39334-.16907.59665-.21666s.41259-.0706.62799-.0689c.33088.003.59589.0599.79531.17228s.30212.24162.30802.38778c.006.1441-.0493.40827-.16604.79242-.28865.93984-.57886,1.87944-.87079,2.81877l-1.90909-.018 .90239-2.87397c.0735-.23804.10262-.3911.0874-.45916s-.0854-.10265-.21053-.10386c-.11577-.001-.20518.033-.26827.10229s-.12359.20762-.19095.41476c-.30342.97127-.60881,1.94223-.91634,2.91286l-1.91489-.0278c.53593-1.657 1.06495-3.3151 1.58786-4.9742 .63049.008 1.26067.0152 1.89052.0211m-2.86198.86658c-.33256,1.04655-.66771,2.09268-1.00564,3.13836-.13588.42362-.23993.6975-.31155.82172s-.22249.25009-.45309.3835c-.22747.13554-.51813.23571-.87209.30012-.35085.0665-.77607.0939-1.27571.0815-.61421-.0153-1.08583-.0964-1.41346-.24174-.3277-.14325-.4298-.41095-.30731-.80251 .62315.0186 1.24565.0354 1.86749.0507-.0612.17961.01.27196.2129.27684 .14602.003.25134-.0219.31597-.0759 .0678-.054.13049-.16884.18801-.34453l.10131-.30643c-.19506.0923-.39303.16084-.59381.20541s-.39639.0645-.59625.0593c-.34578-.009-.6161-.0615-.8105-.15748s-.30384-.21752-.33789-.36464-.004-.35825.0884-.62729c.16537-.49131.33-.98274.4939-1.4743 .12968-.38545.32845-.65998.59629-.82393s.62413-.24049 1.05994-.23056c.23829.005.4445.0418.61885.1093 .17747.0675.3215.16618.43214.296l.23583-.30404 1.76623.0306m-2.25172,1.04629c.06-.18604.081-.30497.0631-.35679-.0147-.0517-.0786-.0788-.19169-.0812s-.19685.0256-.26086.0839-.12439.17017-.18133.34178c-.14919.45564-.29894.91119-.44929,1.36664-.0607.18176-.0839.30057-.0693.35649 .0178.0539.0821.0822.19277.0848 .12649.003.21885-.028.27707-.0926s.13072-.21217.20786-.44306l.41159-1.26006m-2.12641-2.0381-.2086.62732c-.39205-.0106-.62774-.005-.70687.0172s-.13744.0855-.17512.19554l-.0413.12845 .80096.0229-.21495.64241-.45326-.013c-.37262,1.10573-.74901,2.21081-1.12942,3.31523-.64345-.0208-1.28762-.0436-1.9325-.0684 .38854-1.10206.77277-2.20484 1.15293-3.30831-.13082-.005-.26166-.009-.39252-.014l.22121-.64054c.13054.005.26107.009.39158.0138 .0908-.26653.16579-.44411.22527-.53267s.15618-.16558.29011-.23115c.13712-.0675.3112-.11641.52224-.14685s.53261-.0391.95531-.027l.69497.0191m-3.8177,2.32592-1.80911-.0743 .16776-.46529c.0578-.16224.0751-.2727.0523-.33136s-.0846-.0933-.19501-.0981c-.1105-.005-.19374.0171-.24974.0661s-.11492.16164-.17682.338c-.22701.63433-.45552,1.26839-.68561,1.90219-.0548.14364-.0666.2533-.0349.32898 .0317.0736.10342.11309.2152.11834 .13092.006.23327-.0273.30696-.10006s.14883-.21358.22527-.42228l.16982-.4805c.57217.0256 1.14389.0494 1.71517.0716-.11724.32283-.22064.56481-.30984.72599s-.25501.32034-.49816.48325-.52172.27881-.84541.35306-.69535.0985-1.12462.0779c-.54781-.0264-.96016-.1075-1.2359-.24154-.27563-.1361-.44098-.31419-.49622-.53363-.052-.22131-.004-.52782.14218-.91969l.42092-1.14278c.12647-.34155.27482-.59647.44521-.76487s.45474-.3114.85243-.4301 .85127-.16958 1.35181-.14769 .89725.10695 1.20042.25695c.30632.15007.48259.33062.52845.54236s.002.50762-.1325.88753m-6.59905-.57933c-.58896-.0439-1.17507-.0925-1.75838-.14511l.0883-.21515c.0755-.18328.10548-.30042.0904-.35134-.0116-.0526-.0856-.0851-.2216-.0974-.11012-.01-.20288.005-.27849.0456-.0722.0387-.12719.10276-.16508.19218-.0507.12128-.0741.21205-.07.27238s.0599.12764.16728.20791 .35336.2056.7317.37272c.50568.22159.82172.4133.942.57956s.11663.39398-.003.68387c-.13246.32399-.3046.56323-.51595.71725s-.49689.25922-.86563.31939-.77935.0655-1.23974.0202c-.5101-.0502-.92298-.1433-1.24019-.27673s-.50594-.28919-.56846-.46596-.0157-.42829.12929-.75586l.0851-.18931c.5795.0643 1.16226.12567 1.74831.18341l-.10916.24973c-.0907.21224-.12816.35221-.1117.42002s.0904.1083.22231.12121c.14171.0139.24947.002.32292-.0339 .077-.0381.14528-.1257.20481-.2627 .0811-.1887.094-.31044.0399-.36512s-.38066-.23133-.96804-.5352c-.49348-.25707-.76497-.47426-.82113-.64799-.0559-.17576-.034-.37417.0648-.5953 .13824-.31413.30654-.53815.50538-.67241 .19904-.13628.47551-.22849.83023-.27804 .35791-.0492.75022-.054 1.17861-.0156s.77436.10238 1.04739.1945 .46789.19558.58328.31768 .17651.23175.17279.32843-.0457.24527-.12642.44561l-.0915.2315m-4.1731-1.70231c-.65341,1.49749-1.32057,2.99128-1.99773,4.48194l-1.95319-.2421 .39938-.87017c-.2651.14463-.4866.228-.6643.25048s-.38286.0215-.61412-.009c-.33581-.0447-.59067-.1312-.76567-.25884s-.25896-.27322-.26206-.43777c-.003-.16659.0703-.41001.21929-.73034 .26447-.57152.52836-1.14329.79147-1.71537 .12147-.26402.23949-.4569.35431-.57862 .11511-.12376.30107-.21937.55821-.28727s.53791-.0853.83286-.0476c.23846.0305.44307.0916.61385.18341s.31388.21626.41984.3723l.17977-.32953c.62661.0762 1.25595.14939 1.88809.21875zm-2.39899.84148c.0793-.17269.11011-.29229.0926-.35874-.0143-.0661-.0769-.10591-.18738-.11966s-.19292.004-.25668.0519-.13327.16681-.21816.35525l-.79249,1.73826c-.095.20982-.1368.34552-.12541.40718s.0763.097.19408.11217c.11143.0143.19974-.005.26468-.0564 .0652-.0539.14258-.17794.23195-.37205 .2669-.58556.53256-1.17153.79674-1.75794m-2.34421-1.42759c-.53403.58643-1.06945,1.17157-1.60487,1.75582-.0106.71854-.0208,1.43714-.0304,2.15579l-.84192-.11764c-.31724-.0428-.63203-.0851-.94436-.12667 .0549-.53684.12007-.99651.19572-1.37895-.32214.44716-.64265.87313-.96075,1.27814l-1.44904-.18271c.52625-.65491 1.06671-1.30588 1.61752-1.95377 .0141-.65636.0275-1.3128.0399-1.96931 .50045.0645 1.0042.13164 1.51125.20037-.11375.82796-.18609,1.29698-.21609,1.40717 .29044-.39526.53041-.71123.71793-.94846 .11884-.14659.21683-.26306.29399-.34939l1.6709.22957m-5.11141,1.45652c-.75453-.0928-1.4976-.1777-2.22923-.25055-.1083.28598-.21551.57217-.32157.85857-.0669.1796-.0929.29702-.0786.35213 .017.0554.0759.0879.17741.098 .12619.0125.22324-.0128.29091-.0762 .0706-.0651.14398-.19617.22035-.39305l.20218-.52192 1.63301.18776-.12248.28995c-.0991.24304-.19776.42709-.29609.55214s-.25845.25205-.47803.38195-.46503.21899-.73549.26821-.58485.0523-.94214.0177c-.34649-.0335-.63591-.097-.87232-.19292-.23375-.0956-.40075-.21212-.50286-.35149s-.15189-.29114-.15729-.45024c-.003-.16099.0445-.39078.14372-.68896 .13263-.38965.26778-.77883.40534-1.16754 .12349-.34956.28778-.61952.49361-.80888s.48113-.32677.82655-.40363 .7251-.0964 1.12845-.0526c.49331.0536.87642.16629 1.14446.33329s.42726.36228.4675.5893-.0171.52799-.17908.90832l-.21826.52074m-1.48005-.84315 .11731-.28853c.0798-.20457.11612-.33828.10837-.40125s-.0607-.0998-.15835-.11033c-.12071-.013-.2052.005-.25362.0539s-.11552.18144-.20118.40435l-.11492.28925c.16694.017.33441.0346.5024.0527m-1.93402-2.54519c-.59208,1.62464-1.14435,3.25716-1.64716,4.89855-.53663-.0273-1.06393-.0437-1.58191-.0472 .42675-1.66287.91122-3.3156 1.44375-4.95918 .59108.0253 1.18619.0619 1.78532.10783zm-4.62923-.15137c-.11066.39449-.21977.78918-.32739,1.18405 .17854-.12085.36522-.21035.55948-.26829s.39611-.0894.60484-.0882c.17235.001.32439.0163.45601.0454 .0496.0112.0962.0246.13971.0402 .15342.055.25945.13195.31788.22969s.0863.193.076.28539-.0547.289-.13871.59013c-.14609.51524-.28691,1.03145-.42214,1.54866l-.0824.29194c-.0833.29945-.17203.52279-.26669.6701s-.25626.27151-.4849.38009-.47483.16059-.74866.16286c-.19638.002-.37142-.028-.52539-.0895s-.28688-.15464-.39872-.27995l-.18582.31254c-.52754.0118-1.05816.0287-1.59183.0501 .38955-1.68207.79969-3.36153 1.23419-5.038l1.78451-.0271m-.0346,2.06458c.0588-.21217.0782-.35007.0577-.41376-.0205-.0658-.0856-.0984-.19522-.0977s-.18442.0302-.2328.0883-.0987.19848-.15892.4275c-.15601.59014-.3088,1.18069-.45853,1.77163-.0579.22113-.0775.36242-.0594.42381s.0832.091.18684.0894c.10646-.002.18427-.0346.23375-.099s.10472-.21831.16637-.46172c.15032-.57657.30369-1.15274.46027-1.7285m76.97493-17.50761-1.22159,1.65007 .27493,2.45978-1.7976.0249c-.0224-.59449-.0448-1.18898-.0671-1.78347l-.51519,1.79154-1.86692.0259c.48085-1.67272.96093-3.34544 1.44024-5.01814l1.86402-.0258c-.20078.70255-.40169,1.4051-.60274,2.10765l.92276-1.21063 1.56917-.0218m-4.4176-.8402-.18653.65398-1.91978.0266 .18693-.65399zm-.2622.9051-.93415,3.25451c-.10985.38227-.19641.64177-.25964.77848-.0602.13461-.16522.25338-.3151.35631s-.32625.18357-.53833.23591-.51688.0813-.91437.0868l-.72101.01 .18757-.65707c.22181-.003.35102-.0214.38766-.0548s.11311-.24032.22013-.6205l.96731-3.36301zm-3.3793,3.16492-.12949.44944c-.0655.23553-.16207.4293-.28997.58132s-.30996.28214-.54619.39038c-.23314.1082-.4836.18164-.75134.22035l.10288-.35954c.20576-.0729.33733-.1683.39474-.28641l-.31423.004 .28167-.98254zm-.6913-3.10847-1.22605,1.65011 .26823,2.45986-1.79761.0249c-.0208-.59451-.0415-1.18902-.0622-1.78352l-.52005,1.79159-1.86691.0259c.48539-1.67277.97-3.34553 1.45384-5.01829l1.86401-.0258c-.20268.70257-.4055,1.40514-.60845,2.10772l.92603-1.21067 1.56917-.0218m-4.29674.0596c-.68681,1.37509-1.37452,2.75018-2.06312,4.12528l-2.16282.03-.27523,3e-005c.0821-1.29863.16454-2.59722.24724-3.89578 .004-.0669.008-.1338.0126-.2007l1.66609-.0231c-.1154.99772-.23091,1.99545-.34653,2.99317 .10305-.21958.32691-.7578.67116-1.61463 .19329-.47809.38814-.94182.58457-1.39115zm-6.70183-.84044c-.11026.37477-.22042.74957-.33051,1.12438 .19168-.0992.38836-.17362.59003-.22334s.40991-.0747.62471-.075c.32996-.00037.59531.055.79567.16606s.30426.23965.3116.38577c.007.14405-.0453.4085-.15763.79339-.27791.94164-.55508,1.88342-.83166,2.82535l-1.88019.004 .8449-2.88543c.0693-.23887.096-.39225.08-.46015s-.0863-.10172-.21056-.10149c-.11492.00022-.2031.0354-.26457.1055s-.11923.20917-.18255.41718l-.85257,2.92593-1.87411.006c.48512-1.66793.97057-3.33574 1.45713-5.00331l1.8804-.004m-5.20597.9165-.13976.37719c.18019-.15089.37771-.26374.59262-.33858 .21798-.0768.45489-.11577.71086-.11664 .32071-.001.56816.0485.74203.14887 .17695.10029.27239.22761.28617.38195s-.0317.40766-.13665.76617l-.83519,2.87434-1.8678.006 .82503-2.84046c.0807-.2823.11607-.45429.10629-.51602s-.0778-.0924-.20401-.0919-.22588.0368-.28062.10902-.12695.2598-.21657.56887l-.80245,2.77239-1.86162.005c.39691-1.3668.79285-2.73374 1.18826-4.10077l1.89341-.006m-2.291-.89439-.18793.65205-1.90668.004 .18819-.65183 1.90642-.005zm-.26413.90237-.94173,3.24453c-.11083.38107-.19803.6396-.26151.77558-.0605.13393-.16544.25148-.31498.35262s-.32527.17966-.53635.22936-.51414.0748-.90883.0751l-.71562.00023 .18994-.6546c.21997-4e-005 .34829-.0166.38482-.0495s.11356-.23885.22174-.61768c.32617-1.11696.65134-2.23409.97574-3.35134l1.90678-.004m-4.74187-.89625-.32931,1.12343c.18775-.0985.38012-.1724.5772-.22165s.40036-.0739.60995-.0738c.32197,5e-005 .58068.0555.77594.16653s.29639.23959.30321.38573c.007.14409-.0452.40865-.15616.79366l-.82555,2.82545-1.84836-.002 .84811-2.88226c.0693-.23868.0962-.392.0809-.45995s-.0837-.10197-.20511-.10213c-.11226-.00014-.19864.0347-.25917.10461s-.11793.20872-.18132.41649c-.2852.97409-.57143,1.948-.85885,2.9217l-1.84195-.008c.49681-1.66312.98948-3.32696 1.47882-4.99142l1.83167.004m-4.84403-.0218-.33573,1.12069c.18677-.0971.37786-.16947.57337-.21728s.39695-.071.60444-.0695c.31873.002.57441.0594.76691.17157s.29175.24136.29744.38752c.006.1441-.0477.40831-.16046.79257l-.84049,2.81953c-.6126-.004-1.22438-.01-1.83533-.0161l.86709-2.87493c.0707-.2381.0987-.39119.0841-.45924s-.0821-.10256-.20227-.10364c-.11119-.001-.19704.0332-.25763.10258s-.11868.20775-.18336.41497l-.8793,2.91387-1.82879-.0254c.51165-1.6577 1.0174-3.31647 1.51806-4.97618l1.81197.0189m-2.73997.86993c-.31775,1.04698-.63767,2.09355-.95998,3.13969-.12962.4238-.22877.69782-.29698.82215s-.21176.2504-.43091.38415c-.21617.13586-.49215.23648-.82767.30142-.33257.0671-.73517.0952-1.20711.0836-.58016-.0143-1.02423-.0945-1.33233-.23924s-.40355-.41013-.28773-.80189l1.75992.0474c-.058.17971.009.27194.20085.27647 .13803.003.23771-.0223.29891-.0764s.12365-.16906.17829-.34483l.0962-.30659c-.18477.0926-.37211.16147-.56195.20638s-.37463.0651-.56325.0603c-.32633-.008-.58096-.0605-.76388-.15606s-.28567-.21694-.31749-.364-.003-.35822.0842-.62742c.15639-.49159.31212-.98329.46721-1.47512 .12269-.38567.31031-.66055.56312-.82496 .25576-.16433.58915-.24155 1.00128-.23234 .22535.005.42056.0411.58565.1083s.30451.16567.40934.29531l.22402-.30439 1.68022.0281m-2.14171,1.04952c.0571-.18613.0771-.30509.0602-.35689-.0139-.0517-.0746-.0787-.18162-.0809-.10415-.002-.18652.0259-.24718.0843s-.11796.17036-.17204.34206c-.1417.45586-.2839.91163-.42661,1.36731-.0577.18185-.0797.30071-.0659.3566 .0168.0539.0775.0821.18224.0845 .11967.003.20715-.0284.26234-.093s.12399-.21238.1973-.44337l.39129-1.26066m-2.00721-2.0345-.1974.62765c-.3692-.01-.59067-.004-.66507.0186s-.12932.0857-.16491.19586l-.0391.12852 .75328.0214-.20333.64276-.42629-.0121c-.35211,1.10636-.70754,2.21211-1.06653,3.3172l-1.80816-.0644c.36544-1.1028.72701-2.20631 1.08497-3.31049l-.36685-.0132 .20818-.64094 .36611.013c.0855-.26671.15607-.44442.21192-.53311s.14653-.16587.2721-.23171 .29177-.11702.48975-.14786 .49975-.0401.89721-.0288l.6541.0178m-3.58397,2.33325c-.56226-.0216-1.12356-.045-1.68391-.0703l.15726-.46564c.0542-.16235.0706-.27284.0496-.33145s-.0783-.093-.1808-.0977c-.10258-.005-.17988.0175-.23199.0667s-.10714.1619-.16514.33839c-.21264.63479-.42665,1.26933-.64207,1.90361-.0512.14376-.0625.25343-.0335.32901 .0292.0735.0954.11284.19905.11783 .12138.006.21643-.0277.28506-.10078s.13883-.2139.21046-.42276l.15919-.48085 1.59592.0678c-.11018.32306-.20721.56524-.2908.7266s-.23857.32087-.46546.48431c-.22383.16151-.48641.27995-.78743.35494s-.64615.10013-1.04385.0805c-.50751-.0251-.8883-.10514-1.14242-.23847-.25403-.13539-.40573-.31303-.45573-.53228s-.002-.52774.13507-.91994l.39308-1.1437c.1181-.34182.25603-.59708.41404-.76589s.42114-.31251.78955-.43216 .78879-.17163 1.25354-.1509 .83374.10489 1.11581.25422 .44909.32955.49136.54116 .00056.50759-.12594.88774m-5.90788-.54095-1.45516-.11971 .0773-.2161c.066-.1841.0928-.30151.0809-.35216s-.0704-.0838-.18453-.0943c-.0924-.009-.17086.008-.23527.0494s-.109.10435-.14238.19417c-.0447.1218-.0659.21277-.0633.27296s.049.1267.13856.20541 .29582.20057.60965.36222c.41946.21424.67677.40111.7736.56543 .0941.16412.0908.39184-.0119.68315-.11363.32555-.25921.567-.43702.72381-.17489.15499-.41739.26588-.72873.33098-.30834.0632-.65955.0759-1.05362.0365-.43658-.0437-.79394-.13157-1.06902-.26103s-.43939-.28284-.49206-.45866-.008-.42754.12396-.75638l.0774-.19005c.50817.0574 1.01253.11153 1.51311.16163l-.097.2508c-.0808.21314-.11493.3534-.10177.4209s.0762.10703.18876.11821c.12103.012.21302-.00073.27608-.038 .066-.0391.12537-.12745.17785-.26507 .0715-.18952.0842-.31129.0391-.36519s-.31822-.22592-.81953-.52195c-.42114-.2505-.65571-.46417-.70225-.63699s-.0244-.37326.0648-.59529c.12486-.3154.27439-.5412.44828-.67776s.4139-.23418.71744-.28831c.30625-.0539.63862-.064.99687-.0315s.64354.0913.86707.17926 .38121.18841.4737.30865c.0951.12043.14068.22881.13635.32544s-.0404.2457-.10904.44703c-.0259.0775-.0518.15509-.0778.23261m-3.50066-1.6436c-.59147,1.5034-1.20176,3.00283-1.82712,4.49887-.58704-.0707-1.17801-.14497-1.77294-.22205l.37642-.87291c-.24489.147-.45036.23236-.61525.25645-.16515.0261-.35561.0249-.57161-.004-.31363-.0417-.5535-.12596-.71815-.252s-.24362-.2708-.24545-.43515c-.002-.16639.0697-.41011.21327-.73132 .25491-.57303.5085-1.14636.76055-1.72004 .11636-.26476.22873-.45844.33731-.58103s.2837-.22177.52322-.29195 .49917-.0902.76929-.0554c.21839.0281.40418.087.55823.17699 .15689.0904.28191.21273.37559.36743l.16594-.33101c.56284.0694 1.11972.13528 1.6707.1969zm-2.14458.86735c.0739-.1733.1031-.29307.0881-.35924s-.0683-.10496-.1684-.11755-.17536.006-.23398.0544-.12336.16796-.20298.35699l-.7457,1.74381c-.0897.21046-.12969.34639-.11979.40787s.0695.0962.17779.11018c.1024.0132.18364-.006.24373-.0589s.13255-.17912.21638-.37387l.74485-1.76379m-2.14973-1.40355c-.50715.59034-1.02024,1.17916-1.53787,1.76684-.0141.71787-.0279,1.43579-.0414,2.15375l-.81042-.11129c-.33496-.0482-.67271-.0958-1.01325-.14281 .0533-.53714.11876-.99675.19649-1.3788-.34508.44276-.69243.86424-1.04161,1.26466l-1.66384-.20862c.60478-.64688 1.21244-1.28983 1.81914-1.92976 .006-.65758.0101-1.31524.0134-1.97298 .56455.0731 1.11919.14883 1.66393.2261-.11375.82796-.18665,1.29684-.21776,1.40679 .30799-.39138.55972-.70414.7556-.93885 .11579-.14726.21105-.26429.28596-.35108 .5354.0734 1.06585.14556 1.59137.21602m-5.33876,1.42162c-.87764-.10624-1.77545-.20462-2.69342-.29107-.12861.2845-.25651.5692-.38363.85413-.0802.17866-.11031.29578-.0909.35126s.0986.0895.22692.10146c.15946.0149.28018-.009.36308-.0709 .0865-.0639.17451-.19386.26432-.3897l.23703-.5192c.66353.0671 1.31649.14011 1.95887.21739l-.13698.28841c-.1108.24182-.22265.42449-.33584.54806s-.29936.24796-.5592.37415-.55431.21098-.88522.25526-.72152.0415-1.17667,3e-005c-.44136-.0402-.81937-.10942-1.13244-.21009s-.53567-.22031-.67571-.36188-.21082-.29454-.22177-.45396 .0511-.3904.17683-.68706c.16828-.3876.33838-.77473.51018-1.16139 .15423-.34772.36285-.615.62436-.80085s.61145-.31845 1.04414-.38921c.43649-.0725.90258-.0836 1.3931-.0326 .59991.0624 1.05398.18196 1.37087.35394s.5033.37041.55384.59861-.009.52884-.18922.90717l-.24255.51805m-1.78114-.87112 .1363-.28699c.0924-.20354.1333-.33685.12245-.40009s-.0758-.1011-.19527-.11335c-.1476-.0151-.25105.001-.30946.0494s-.13796.1797-.23865.40146l-.13556.28771 .62018.0619m-2.50062-2.58438c-.73298,1.61613-1.43829,3.2401-2.10627,4.8729-.74869-.0383-1.50806-.0658-2.27811-.0804 .62308-1.65418 1.29173-3.29827 1.99632-4.93324 .812.0363 1.60802.084 2.38806.14078zm-6.16402-.20668c-.13619.39507-.27057.79035-.40319,1.18582 .21879-.12181.44804-.21231.68737-.27127s.48869-.0915.74765-.0914c.21385.00016.40318.0146.56749.043 .0718.0121.13907.0265.20189.0429 .22145.058.37352.13705.4579.23596 .0882.099.12502.19477.1112.28699s-.0751.28807-.19342.58764c-.20581.51247-.40752,1.0259-.60483,1.54032l-.10288.2926c-.10399.2999-.21501.52371-.33352.67154s-.32108.27291-.60621.38276c-.28169.10779-.59102.16324-.92899.16704-.24238.003-.45735-.0259-.64571-.0865s-.35011-.15306-.48567-.27774l-.2275.31362c-.64093.0148-1.27848.0347-1.91265.0591 .47569-1.68468.9767-3.36674 1.50681-5.04578 .7156-.0182 1.43702-.0306 2.16425-.0366m-.0455,2.06482c.0727-.2125.0968-.3505.0716-.41409-.0252-.0657-.10524-.098-.23975-.0967s-.22614.0312-.28551.0895-.12127.19902-.19551.42839c-.19244.59102-.38106,1.18246-.56603,1.7743-.0716.22147-.096.36288-.0742.42418 .0252.0612.10095.0906.22771.0884s.22566-.0356.28655-.10031 .12915-.21891.20556-.46267c.1862-.57744.37602-1.15448.56962-1.7311m76.86458-17.51355-1.21431,1.65 .27349,2.45979-1.78708.0248-.0667-1.78348-.51205,1.79151-1.85599.0258c.47793-1.67269.95509-3.34537 1.43147-5.01804l1.85308-.0257c-.19955.70254-.39924,1.40507-.59907,2.10761l.91727-1.21057 1.55997-.0217m-4.39175-.84047-.18539.65396-1.90852.0265 .18579-.65397zm-.2606.90507-.92846,3.25445c-.10918.38227-.19522.64176-.25808.77847-.0598.13461-.16422.25336-.31323.35629s-.32432.18356-.53516.23587-.51385.0812-.909.0867l-.7168.01 .18643-.65706c.22051-.003.34898-.0213.38539-.0548s.11243-.24031.2188-.62048l.96144-3.36294zm-3.35929,3.16472-.12871.44942c-.0651.23553-.1611.42929-.28824.58131s-.30813.28212-.54297.39035-.48076.18161-.74692.2203l.10226-.35954c.20455-.0729.33535-.16828.3924-.28638l-.31239.004 .27996-.98252zm-.68744-3.10851-1.21876,1.65004 .26678,2.45987-1.78707.0248c-.0207-.5945-.0413-1.18901-.062-1.78352l-.51691,1.79156-1.85599.0258c.48246-1.67274.96415-3.34548 1.44507-5.0182l1.85309-.0257c-.20146.70256-.40305,1.40512-.60478,2.10768l.92053-1.2106 1.55997-.0217m-4.27153.0593c-.68272,1.37504-1.36633,2.75009-2.05083,4.12515l-2.15017.0299-.279-.00026c.0834-1.29844.16702-2.59684.25101-3.89521 .004-.067.008-.13398.0125-.20098l1.65631-.023c-.11467.99772-.22946,1.99544-.34436,2.99316 .10244-.21959.32495-.75777.66715-1.61459 .19213-.47809.38582-.94179.58107-1.39112zm-6.70335-.84302c-.11112.37469-.2221.7494-.33295,1.12412 .19297-.099.39113-.17332.59449-.22286s.41348-.0744.63042-.0744c.33325-8e-005 .60164.0556.80442.16681s.30801.23996.31542.38607c.007.14407-.0459.40846-.15969.79323-.28145.94135-.56185,1.88287-.84133,2.82453l-1.89468.002 .85043-2.88477c.0699-.23881.0968-.39217.0806-.46007s-.087-.1018-.21213-.10166c-.11575.00012-.20452.0352-.26639.10529s-.12.20906-.18371.41704c-.28639.97498-.57194,1.95009-.85681,2.9253l-1.87625.005c.48444-1.6677.9702-3.33524 1.4581-5.00251l1.89009-.003m-5.2096.91368-.13884.37714c.17898-.15083.37529-.26363.58912-.3384 .21685-.0768.45276-.11563.70791-.11638 .3197-.00095.56676.0488.74043.14917 .17674.10038.27217.22776.28594.38209s-.0317.40766-.13656.76611l-.8335,2.87396-1.85727.006 .81907-2.84025c.0802-.28227.11538-.45426.10565-.51599s-.0774-.0924-.20282-.092-.22443.0367-.2788.10894-.12605.25977-.21497.56883l-.79535,2.77225-1.83879.005 1.17222-4.10077 1.87656-.006m-2.26945-.89474-.18545.65206-1.87665.005 .18471-.65188 1.87739-.005zm-.26062.90238-.92762,3.24457c-.10901.38109-.19475.63962-.25715.77563-.0594.13393-.16265.25149-.30955.35266-.14389.10321-.31947.17972-.52652.22947s-.50422.0749-.89041.0753l-.69951.0005 .18546-.65467c.2149-.00012.34045-.0168.37617-.0497s.11105-.23888.21688-.61776c.31911-1.11706.63767-2.23427.95591-3.3516l1.87634-.004zm-4.64743-.89501-.32032,1.12363c.18258-.0987.36979-.17262.56176-.22197s.39015-.0741.59468-.0741c.31419-8e-005 .56706.0553.75804.16624s.29004.23949.29672.38563c.007.14409-.0442.40867-.15274.79371l-.80654,2.82577-1.79959-.001 .82437-2.88275c.0674-.23873.0937-.39206.0787-.46s-.0815-.10192-.19962-.10202c-.10924-7e-005-.19321.0348-.25207.10475s-.11461.20879-.1762.41661l-.8335,2.92224-1.78083-.007c.47922-1.66356.95531-3.3278 1.42906-4.99262l1.77809.003m-4.68121-.0179-.32223,1.12105c.17904-.0973.36235-.16989.55008-.2179s.3813-.0714.58088-.0701c.30658.002.55293.0588.73851.17086s.28139.24111.28686.38726c.005.14411-.0461.40836-.15488.7927l-.81016,2.8203-1.76159-.0141 .83178-2.87586c.0679-.23819.0948-.39131.0808-.45934s-.0787-.10247-.19399-.10343c-.10665-.00086-.18893.0334-.247.10287s-.11377.20789-.17579.41518l-.84225,2.91487c-.5833-.006-1.1642-.014-1.74269-.0229 .48738-1.6584.96987-3.31782 1.44827-4.97816l1.73341.0168m-2.61795.87329c-.30293,1.0474-.60764,2.09441-.91434,3.14101-.12333.42397-.2176.69814-.28239.82256s-.20103.25073-.40872.38481c-.20487.1362-.46619.23725-.78328.30274-.31429.0676-.69426.0964-1.1385.0857-.54612-.0132-.96263-.0926-1.25119-.23676s-.37732-.40931-.26816-.80127c.54848.0163 1.09926.0309 1.65234.0441-.0549.1798.008.27191.18882.27611 .13004.003.22405-.0227.28183-.0769s.11683-.16926.16859-.34512l.0912-.30674c-.17446.093-.3512.1621-.5301.20735s-.35286.0658-.53023.0614c-.30688-.008-.54581-.0594-.71727-.15462s-.26752-.21639-.29707-.36338-.003-.35821.08-.62755c.1474-.49187.29423-.98385.44051-1.47595 .11572-.38588.29217-.66109.52996-.82597s.55416-.24262.94264-.23413c.2124.005.39658.0404.55242.1073s.28755.16517.38656.29464l.21221-.30474 1.59421.0256m-2.0317,1.05273c.0542-.18622.0732-.30521.0573-.35697-.0131-.0516-.0703-.0786-.17154-.0806s-.17618.0263-.23351.0848-.11152.17055-.16274.34234c-.13422.45609-.26885.91209-.40392,1.36799-.0546.18195-.0755.30084-.0626.3567 .0157.0539.0729.082.1717.0841 .11286.002.19544-.0288.2476-.0934 .055-.0646.11728-.21258.18676-.44368l.37097-1.26127m-1.88799-2.03089-.1862.62799c-.34635-.009-.5536-.003-.6233.0198s-.12118.086-.15468.19617l-.0368.1286 .70558.0199-.1917.64311-.39933-.0113c-.3316,1.107-.66607,2.21339-1.00364,3.31916l-1.68382-.0605c.34233-1.10353.68125-2.20776 1.01701-3.31264l-.34117-.0124 .19513-.64136 .34065.0122c.0802-.26688.14635-.44474.19858-.53353s.13688-.16619.25409-.23229 .27234-.11763.45727-.14888c.18768-.0311.46686-.0411.83908-.0306l.61324.0166zm-3.35023,2.3406-1.55872-.0662 .14677-.46597c.0506-.16247.0661-.27299.0469-.33154s-.0719-.0928-.16658-.0972-.16602.018-.21425.0673-.0993.16214-.15344.33876c-.19828.63526-.39777,1.27028-.59853,1.90504-.0478.14386-.0586.25355-.0321.32905 .0266.0734.0875.11257.18292.11729 .11182.006.19961-.0283.26316-.10149s.12881-.21423.19563-.42324l.14858-.48119 1.47668.0639c-.10312.32328-.19381.56567-.27177.72721s-.22214.32139-.43274.48536-.45113.28109-.72949.35682c-.27552.0738-.59693.10173-.96305.0831-.46723-.0237-.81644-.10278-1.04896-.23539s-.37048-.31186-.41524-.53094 .001-.52767.12797-.92018l.36522-1.14462c.10974-.3421.23725-.59771.38286-.76693s.38756-.31361.72668-.43422 .72634-.17367 1.15526-.15411 .77026.10285 1.03122.25148 .41558.32849.45427.54-.00083.50753-.1192.88795m-5.21672-.50257-1.15196-.0943 .0662-.21706c.0565-.18491.08-.3026.0713-.35297s-.0552-.0825-.14748-.0911c-.0747-.007-.13883.0107-.19207.0531s-.0908.10596-.11965.19616c-.0387.12233-.0576.2135-.0565.27356s.038.12572.10984.20289 .23826.19555.48758.3517c.33326.20692.53184.38894.60521.55134s.0649.38969-.0207.68241c-.0948.3271-.21379.57075-.35809.73036s-.33788.27255-.5918.34256-.53978.0862-.8675.0527c-.36309-.0371-.6649-.11985-.89787-.24535s-.37283-.27649-.41567-.45135-.00022-.4268.11864-.7569l.0696-.1908c.43684.0506.8628.0974 1.27792.13984l-.0849.25189c-.0708.21403-.10172.35458-.0918.42179s.0618.10573.15522.11521c.10034.0102.17655-.004.22921-.0422 .0552-.0401.10546-.12921.1509-.26743 .0619-.19037.0744-.31217.0383-.36528s-.2558-.2205-.67103-.50871c-.3488-.24392-.54643-.45405-.58337-.62597s-.0148-.37235.0648-.59529c.11149-.31666.24223-.54422.39118-.6831s.35229-.23987.60463-.29859 .52702-.0739.81513-.0475 .51272.0801.68676.16403 .29453.18124.36411.2996 .10487.22589.0999.32247c-.005.0966-.0352.24613-.0917.44844l-.0642.23373m-2.82823-1.58489c-.52953,1.50931-1.08294,3.01439-1.65648,4.5158-.51796-.0635-1.04885-.13111-1.5927-.20198 .11847-.29177.2363-.58366.35347-.87566-.22469.1494-.41413.23673-.56621.26244s-.32837.0284-.52909.002c-.29147-.0387-.51634-.12072-.67064-.24516s-.22829-.26839-.22886-.43254c-.00033-.16617.069-.41022.20725-.73229 .24536-.57455.48865-1.14944.72964-1.72472 .11125-.2655.21799-.45998.3203-.58344 .10259-.12549.26636-.22417.48826-.29664s.4604-.0951.7057-.0633c.19831.0258.36529.0825.50261.17059s.24994.20918.33134.36256l.1521-.3325 1.45331.17504zm-1.89014.89324c.0684-.1739.0961-.29384.0835-.35975s-.0596-.10402-.1494-.11546-.1578.008-.21128.057-.11344.16909-.18778.35873c-.23022.5836-.46326,1.16671-.69892,1.74936-.0844.21111-.12259.34728-.11418.40856s.0627.0954.16148.1082c.0934.0122.16756-.008.22281-.0614 .0555-.0551.12252-.1803.20079-.37569 .23387-.58938.46494-1.17924.69296-1.76964m-1.95524-1.37951c-.48027.59425-.97103,1.18674-1.47087,1.77784-.0176.71721-.035,1.43445-.0523,2.15172l-.77899-.10495c-.35265-.0535-.71334-.10658-1.08207-.15893 .0517-.53745.11745-.997.19727-1.37866-.36803.43835-.74222.85535-1.12251,1.25119-.60597-.0809-1.23218-.15946-1.87863-.23454 .68331-.63884 1.35818-1.2738 2.02076-1.90575-.003-.65881-.007-1.31769-.0131-1.97665 .62864.0817 1.23418.16602 1.81662.25182-.11376.82797-.18724,1.29673-.21945,1.40642 .32552-.38745.58896-.697.79321-.92918 .11277-.14795.20531-.26558.27798-.35284l1.51184.20248m-5.56612,1.38672c-1.00076-.11964-2.05329-.23153-3.15761-.33158l-.44567.84967c-.0935.17772-.12776.29455-.10313.3504 .0289.0562.12135.0911.27644.10498 .19273.0172.33714-.005.43525-.0656s.20506-.19155.30831-.38635l.27188-.51648c.78911.077 1.55068.15991 2.28473.24702l-.15148.28688c-.1225.24058-.24754.42189-.37559.54396s-.34028.24387-.64037.36636-.64358.20294-1.03495.24232-.85821.0306-1.41121-.0177c-.53624-.0469-1.00283-.12192-1.39257-.22727s-.67056-.22848-.84857-.37228c-.17339-.14553-.26971-.29793-.28621-.45767-.0118-.16151.0577-.39002.20994-.68516 .20392-.38554.40897-.77062.61501-1.15524 .18497-.34588.43791-.61048.7551-.79282s.7418-.31012 1.26176-.37478c.52448-.0663 1.08003-.0707 1.65772-.0126 .7065.0712 1.23155.19762 1.59729.37459s.57933.37855.64017.60793-.002.52967-.19937.906l-.26686.51537m-2.08221-.89912 .1553-.28542c.10494-.2025.15049-.33543.13653-.39892s-.091-.10237-.23219-.11639c-.17446-.0173-.2969-.002-.3653.045s-.16037.17796-.2761.39858l-.1562.28614 .73796.0711m-3.06723-2.62356c-.87388,1.60762-1.73222,3.22305-2.56537,4.84727-.96076-.0493-1.95219-.0879-2.9743-.11368 .81939-1.64551 1.67223-3.28095 2.54887-4.90732 1.03291.0474 2.02984.10599 2.9908.17373zm-7.69882-.262c-.16172.39567-.32135.79154-.47896,1.18761 .25904-.12278.53084-.21426.81522-.27426s.58131-.0936.89049-.0945c.25531-.00075.4819.0129.67889.0406 .094.0131.18203.0283.26415.0456 .28946.061.4876.14212.59789.24222 .11535.10023.16375.19652.14642.28858-.012.0922-.0955.28714-.24811.58516-.26557.50979-.5282,1.02054-.78761,1.53228l-.1233.29297c-.12466.30032-.258.52461-.40037.67297s-.3859.2743-.7275.38542-.70724.16588-1.10935.17123c-.28838.004-.54327-.0239-.76601-.0836s-.41335-.15145-.57263-.27553c-.0901.10483-.17983.20974-.26918.31471-.75432.0178-1.49881.0407-2.23347.0682 .56182-1.68731 1.15371-3.37196 1.77943-5.05356 .83482-.0214 1.68281-.037 2.54398-.0461m-.0565,2.06508c.0866-.21282.11526-.35094.0856-.41441-.0299-.0656-.12486-.0975-.28427-.0956s-.26786.0322-.3382.0908-.14383.19955-.23214.42926c-.22885.59191-.4533,1.18424-.67352,1.77697-.0852.22182-.11447.36336-.089.42456s.11876.0901.2686.0873 .26703-.0367.33933-.10162c.0723-.065.1536-.21951.24474-.46363 .2221-.57831.44838-1.15622.679-1.7337m76.75421-17.51948-1.20703,1.64992 .27207,2.45981-1.77655.0247-.0666-1.78348-.50891,1.79148-1.84506.0256c.47501-1.67266.94924-3.34531 1.4227-5.01795l1.84215-.0256c-.19832.70253-.39678,1.40505-.59538,2.10758l.91178-1.21052 1.55076-.0216m-4.3659-.84075-.18426.65395-1.89726.0264 .18466-.65396zm-.25901.90506-.92278,3.25439c-.10851.38226-.19403.64174-.2565.77845-.0595.13459-.16325.25335-.31137.35627s-.3224.18353-.53199.23585-.51082.0812-.90365.0867l-.71256.01 .18529-.65706c.2192-.003.34691-.0213.38311-.0547s.11176-.24029.21747-.62046l.95558-3.3629zm-3.33929,3.1645-.12792.44943c-.0647.23552-.16012.42928-.2865.58128s-.3063.2821-.53975.39032-.47791.18158-.74252.22025l.10164-.35953c.20334-.0728.33336-.16825.39008-.28636l-.31055.004 .27826-.98251zm-.68356-3.10855-1.21149,1.64997 .26535,2.45987-1.77654.0247c-.0206-.59451-.0411-1.18902-.0617-1.78353l-.51377,1.79153-1.84505.0256c.47955-1.67271.95831-3.34541 1.4363-5.0181l1.84215-.0256c-.20023.70254-.40059,1.40509-.60109,2.10764l.91503-1.21056 1.55077-.0216m-4.24633.059c-.67863,1.375-1.35814,2.75-2.03855,4.12502l-2.13744.0297-.28283-.00055c.0846-1.29867.16954-2.59731.25484-3.89591l.0123-.19998 1.64655-.0229c-.11395.99772-.22802,1.99543-.3422,2.99314 .10182-.21957.32301-.75776.66315-1.61455 .19096-.47807.3835-.94176.57758-1.39108zm-6.70485-.84557c-.11199.37459-.22379.74921-.33541,1.12384 .19428-.0989.39391-.173.59894-.22239s.41707-.074.63613-.0739c.33654.00023.60798.0562.81316.16757s.31177.24027.31927.38638c.007.14408-.0466.40842-.16176.79307-.28499.94106-.56861,1.8823-.85099,2.8237l-1.90918.00052 .85597-2.88408c.0704-.23876.0976-.3921.0812-.46001s-.0877-.10187-.21369-.10183c-.11657,3e-005-.20593.0351-.26821.10507s-.12076.20899-.18486.41691c-.28814.97476-.57511,1.94966-.86105,2.92468l-1.8784.004c.48376-1.66747.96985-3.33474 1.45909-5.00169l1.89979-.002m-5.21326.91082-.1379.37711c.17775-.15078.37288-.26352.5856-.33822 .21575-.0768.45064-.11548.70497-.11614 .31869-.00081.56537.049.73883.1495 .17654.10046.27195.22788.28572.38223s-.0317.40764-.13647.76604l-.83183,2.87357-1.84674.005c.27052-.9467.54151-1.89339.8131-2.84005 .0797-.28223.1147-.45421.10502-.51594s-.077-.0924-.20163-.092c-.13074.00037-.22298.0366-.27696.10886s-.12515.25974-.21339.56878c-.26321.92402-.52592,1.84805-.78824,2.77209l-1.81596.005 1.15618-4.10076 1.8597-.005m-2.24788-.89506-.18298.65205-1.84661.005 .18122-.65192 1.84837-.005zm-.25711.90237-.9135,3.24463c-.10722.3811-.19147.63965-.25281.77566-.0584.13394-.15986.25152-.30413.35271s-.31366.17978-.5167.22958-.49428.0751-.87198.0756l-.6834.00075 .18099-.65474c.20985-.00021.3326-.0169.36753-.0498 .0378-.0331.10854-.23892.21203-.61783l.93607-3.35187 1.8459-.005m-4.55299-.89376-.31134,1.1238c.1774-.0987.35948-.17282.54633-.22227s.37995-.0743.5794-.0744c.3064-.00024.55347.0551.74015.16593s.28368.2394.29024.38554c.006.14408-.0432.40867-.14934.79375l-.78755,2.82609-1.7508-.00024 .80062-2.88325c.0655-.23875.0911-.3921.0765-.46004s-.0793-.10188-.19414-.1019-.18778.0349-.24494.10489c-.0543.07-.11133.20886-.17111.41671l-.80812,2.92279-1.7197-.005c.46161-1.664.92111-3.32864 1.37928-4.99381l1.72451.002m-4.51839-.014-.30874,1.12141c.17131-.0975.34687-.1703.5268-.21852s.36566-.0718.55732-.0707c.29443.002.53145.0583.71011.17014s.27103.24085.2763.387c.005.14409-.0444.40839-.14931.79283l-.77986,2.82106-1.68782-.0122 .79647-2.87682c.0651-.23826.0909-.3914.0775-.45942s-.0754-.10239-.18573-.10321c-.10208-.00075-.18079.0336-.23636.10315-.0528.0696-.10886.20802-.16821.41539l-.8052,2.91588-1.65658-.0205c.4631-1.6591.92231-3.31918 1.37845-4.98014 .54724.006 1.09886.0108 1.65487.0147m-2.49594.87666c-.28811,1.04782-.57761,2.09527-.86868,3.14232-.11706.42416-.20644.69847-.2678.82299s-.19032.25103-.38654.38546c-.19357.13653-.44024.23801-.73887.30406s-.65336.0976-1.06991.0877c-.51207-.0122-.90104-.0908-1.17006-.23425s-.35106-.40849-.24857-.80067c.51114.0151 1.02607.0286 1.54476.0408-.0517.17991.007.27189.17677.27575 .12205.003.21041-.0231.26477-.0774 .0571-.0544.11001-.16947.15887-.34542l.0861-.30689c-.16416.0933-.33028.16273-.49824.20831s-.33109.0664-.49723.0623c-.28743-.007-.51067-.0583-.67065-.1532s-.24935-.21583-.27665-.36274-.002-.35818.0758-.62767c.13841-.49215.27634-.98441.41382-1.47678 .10874-.3861.27403-.66166.49678-.82698 .22536-.16526.51917-.24371.88398-.23592 .19947.004.37263.0397.51922.10631s.27057.16466.36376.29395l.2004-.30509 1.5082.0231m-1.92169,1.05594c.0512-.18631.0693-.30533.0543-.35707s-.0662-.0784-.16147-.0803c-.0926-.002-.16585.0265-.21984.0852s-.10508.17075-.15345.34262l-.38124,1.36868c-.0515.18204-.0713.30095-.0592.35678 .0147.0538.0684.0818.16117.0838 .10602.002.18372-.0291.23285-.0939s.11056-.21277.1762-.444l.35067-1.26187m-1.76878-2.02728-.17501.62833c-.32349-.008-.51652-.002-.5815.0211s-.11305.0862-.14446.1965l-.0345.12866 .65788.0184-.18007.64347-.37236-.0105c-.31109,1.10763-.62459,2.21469-.94074,3.32112l-1.55949-.0565c.31922-1.10428.6355-2.20923.94906-3.31482l-.31551-.0116 .18209-.64177 .31518.0113c.075-.26705.13664-.44504.18524-.53395s.12722-.16649.23608-.23286 .2529-.11824.42479-.1499 .43399-.0422.78097-.0325l.57236.0153m-3.11649,2.34792-1.43351-.0622 .13626-.46632c.0469-.16258.0616-.27312.0442-.33161-.0148-.0605-.0657-.0926-.15236-.0967s-.15215.0184-.19651.0678-.0916.1624-.14175.33914c-.18392.63573-.3689,1.27122-.55499,1.90646-.0443.14399-.0545.25369-.0307.32911 .024.0733.0795.11231.16678.11677 .10227.005.18277-.0288.24125-.10221s.11879-.21457.18082-.42372l.13796-.48155 1.35743.0601c-.0961.3235-.18039.5661-.25274.72782s-.2057.32192-.40003.48642-.41583.28222-.67152.35869c-.25308.0745-.54773.10333-.88228.0858-.42693-.0224-.74457-.10042-.95548-.23231s-.33523-.31069-.37474-.5296 .004-.52758.12086-.92041c.11289-.38176.22534-.76361.33737-1.14555 .10136-.34238.21845-.59832.35168-.76794s.35396-.31473.66381-.4363 .66386-.17572 1.05698-.15731 .70675.10088.9466.24875 .38208.32741.41719.5388-.002.50749-.11262.88817m-4.52549-.4642-.84876-.0689 .0552-.218c.047-.18572.0673-.3037.0618-.35379-.004-.052-.04-.0812-.11041-.0879-.057-.005-.10681.0135-.14887.0569s-.0726.10754-.0969.19814c-.0327.12286-.0494.21422-.0497.27416s.0271.12476.0811.20038c.0558.0758.18071.19051.36551.34119 .24707.19958.3869.37676.43684.53721s.039.38758-.0295.68169c-.076.32865-.1684.5745-.27918.73691s-.25837.27922-.45489.35415c-.1946.0731-.42.0966-.68139.069-.28959-.0305-.53587-.10814-.72671-.22966s-.3063-.27015-.33929-.44406 .007-.42603.11332-.7574l.0619-.19155 1.04274.11805-.0728.25298c-.0609.21492-.0885.35577-.0819.42268s.0476.10445.12168.11221c.0797.008.1401-.007.18236-.0463s.0856-.13096.12396-.2698c.0524-.1912.0646-.31301.0374-.36533s-.19338-.2151-.52254-.49549c-.27647-.23734-.43717-.44395-.46449-.61495s-.005-.37144.0648-.59529c.0981-.31792.21007-.54726.33408-.68845s.29068-.24555.49184-.30886 .41543-.0838.6334-.0634 .3819.069.50646.1488 .20786.17407.25454.29056 .069.22295.0635.31949-.03.24655-.0743.44986l-.0506.23484m-2.15584-1.5262c-.46759,1.51523-.96413,3.02595-1.48587,4.53274l-1.4125-.18192c.11102-.29268.2212-.58549.33053-.87842-.20449.15179-.37789.24109-.51716.26842s-.30114.0319-.48659.007c-.2693-.0357-.47919-.11537-.62313-.23833s-.21296-.26597-.21227-.42991c.00094-.16597.0684-.41034.20123-.73325 .23582-.57607.4688-1.15252.69874-1.7294 .10615-.26625.20723-.46152.3033-.58586 .0963-.12635.24901-.22657.45328-.30132 .20699-.0765.42165-.10007.64213-.0712 .17826.0234.32641.078.44701.1642s.21796.20564.28709.35769l.13827-.33399c.43531.0557.84727.10705 1.23594.15318zm-1.63575.91912c.0629-.17451.0891-.29462.079-.36026s-.051-.10307-.13042-.11335-.14024.01-.18859.0595-.10351.17022-.17259.36048c-.21385.58548-.43131,1.17044-.65214,1.7549-.0791.21174-.11549.34814-.10856.40925s.056.0945.14519.10622c.0844.0111.15146-.0103.20186-.0639 .0507-.0556.1125-.18148.18522-.3775 .21736-.59128.43113-1.18309.64108-1.77548m-1.76077-1.35548c-.4534.59817-.92183,1.19432-1.40388,1.78886-.021.71653-.0421,1.43309-.0632,2.14968l-.7474-.0986c-.37041-.0589-.75411-.11734-1.15109-.1751 .0501-.53774.11613-.99725.19804-1.37851-.39098.43395-.79201.84646-1.20339,1.23772-.66437-.0895-1.36219-.1767-2.09345-.26046 .76185-.6308 1.50393-1.25775 2.2224-1.88173-.0116-.66003-.0248-1.32014-.0396-1.98033 .69275.0903 1.3492.18321 1.96933.27755-.11375.82797-.18781,1.29659-.22112,1.40604 .34315-.38365.61839-.69005.83104-.91972 .10967-.14854.19944-.26668.26984-.35437l1.43232.18893m-5.79356,1.35181c-1.12389-.13305-2.33117-.25844-3.62184-.3721l-.50774.84523c-.10675.17678-.14521.29333-.11536.34953s.1441.0927.32596.1085c.22599.0196.39407-.00034.50741-.0603 .11833-.0616.2356-.18925.35228-.38301l.30674-.51377c.91468.087 1.78489.17972 2.61062.27665l-.16598.28534c-.13422.23936-.27246.41929-.41538.53988s-.38118.23978-.72154.35856-.73287.19493-1.18468.22938-.9949.0199-1.64575-.0353c-.63112-.0535-1.18631-.13422-1.65272-.24443-.46123-.10972-.80549-.23668-1.02142-.38267-.21044-.14769-.32865-.30133-.3507-.46139s.0643-.38966.24305-.68327l.71987-1.14909c.21568-.34403.51299-.60596.88584-.78478s.87213-.3018 1.47936-.36037 1.25754-.0579 1.92239.007c.8131.08 1.40914.21329 1.82374.39524 .41927.18044.65537.38668.72651.61723 .0756.22905.006.53054-.20953.90487l-.29113.51267m-2.38334-.92709 .17431-.28387c.11752-.20148.16766-.33402.1506-.39776s-.10618-.10364-.26911-.11941c-.20136-.0195-.34276-.006-.42115.0406-.0783.0443-.18281.17622-.31358.39571l-.17683.28458 .85575.0802m-3.63389-2.66276c-1.01479,1.59912-2.02616,3.206-3.02448,4.82165-1.17283-.0603-2.39634-.11001-3.67053-.14692 1.01572-1.63683 2.05275-3.26364 3.10146-4.88141 1.25383.0584 2.45168.12802 3.59355.20668zm-9.23357-.31729c-.18724.39626-.37214.79273-.55474,1.18939 .29928-.12374.61366-.21621.9431-.27724s.67388-.0957 1.03329-.0977c.29691-.002.56087.0112.79059.0383 .11609.0141.22473.0302.32603.0483 .35749.064.60168.14721.7379.24849s.20249.19828.18163.29019c-.0142.0921-.11587.28619-.30284.58266-.32517.50689-.64859,1.01473-.96997,1.52355l-.14404.29404c-.14533.30076-.30099.52552-.46722.67439s-.45069.27571-.84879.3881c-.39331.11031-.82342.16853-1.28967.17541-.33439.005-.6292-.0218-.88632-.0806s-.47659-.14985-.65958-.27332l-.31086.3158c-.8677.0208-1.71913.0467-2.55428.0773 .64795-1.68994 1.33071-3.37719 2.05203-5.06136l2.92371-.0555m-.0674,2.06534c.10045-.21316.13396-.35137.0995-.41474-.0345-.0654-.14448-.0971-.32877-.0946s-.3096.0332-.39092.092-.16638.2001-.26874.43016c-.26526.5928-.52554,1.18602-.781,1.77964-.0988.22215-.13297.36382-.10384.42494s.13658.0897.30947.0863c.17753-.003.30844-.0377.39213-.10293s.17804-.22012.28391-.4646c.25799-.57918.52073-1.15795.78837-1.73629m76.64396-17.52543-1.19974,1.64983 .27062,2.45983-1.76602.0246c-.0221-.59449-.0441-1.18899-.0662-1.78348l-.50578,1.79144-1.83411.0255c.47208-1.67262.94339-3.34524 1.41392-5.01785l1.83122-.0255c-.1971.70251-.39433,1.40503-.59171,2.10754l.90628-1.21045 1.54157-.0215m-4.34006-.84103-.18312.65395-1.88599.0263 .18351-.65396zm-.2574.90505-.91711,3.25432c-.10783.38225-.19283.64173-.25492.77843-.0591.1346-.16226.25335-.3095.35625-.1442.10491-.32048.18352-.52883.23581s-.50778.0812-.89828.0866l-.70835.01 .18416-.65705c.2179-.003.34486-.0213.38083-.0547s.11108-.24028.21615-.62044l.9497-3.36282zm-3.31929,3.16428-.12714.4494c-.0642.23553-.15915.42928-.28477.58127s-.30447.28209-.53653.39028-.47507.18155-.73811.22021l.10103-.35953c.20213-.0728.33138-.16822.38774-.28632l-.30871.004c.0922-.32749.1844-.65499.27656-.98248zm-.6797-3.1086-1.2042,1.64989 .26392,2.45989-1.76602.0246c-.0205-.59451-.041-1.18903-.0614-1.78354l-.51064,1.7915-1.83411.0255c.47662-1.67267.95246-3.34534 1.42753-5.018l1.83122-.0255c-.19901.70253-.39814,1.40506-.59742,2.10759l.90954-1.21049 1.54156-.0215m-4.22112.0588-2.02625,4.12488-2.12469.0296-.28671-.00084c.0859-1.29901.17209-2.59798.25871-3.89691l.0122-.19869 1.63677-.0228c-.11322.9977-.22657,1.9954-.34003,2.99311 .1012-.21956.32105-.75773.65914-1.6145 .18982-.47807.38117-.94173.57409-1.39104zm-6.70637-.84815c-.11286.3745-.22548.74903-.33786,1.12358 .19558-.0987.39669-.1727.60341-.22191s.42063-.0737.64185-.0733c.33982.00052.61431.0567.82188.16831s.31553.24057.32311.3867c.007.14407-.0472.40836-.16383.79289-.28854.94078-.57537,1.88175-.86065,2.82289l-1.92367-.001 .86151-2.88342c.071-.23871.0983-.39202.0819-.45995s-.0883-.10194-.21525-.102c-.1174-6e-005-.20733.0349-.27002.10487s-.12153.20889-.18603.41676c-.28989.97455-.57827,1.94924-.86527,2.92407l-1.88056.003c.48307-1.66724.96949-3.33424 1.46006-5.00087l1.90949-.00024m-5.2169.90799-.13697.37706c.17655-.15072.37047-.26341.58209-.33805 .21463-.0767.44851-.11532.70204-.11587 .31767-.00069.56396.0493.73722.14981 .17634.10055.27173.22801.2855.38236s-.0317.40763-.13639.76596l-.83013,2.87321-1.83622.005c.26821-.94665.5372-1.89327.80714-2.83984 .0792-.28222.11402-.45419.10439-.51593s-.0766-.0924-.20046-.0921c-.12993.00033-.22152.0366-.27513.10879s-.12425.25971-.2118.56873c-.26115.92396-.52148,1.84794-.78113,2.77194l-1.79313.005c.37884-1.36688.75875-2.73382 1.14015-4.10076l1.84283-.005m-2.22631-.8954-.1805.65205-1.81659.005 .17773-.65195 1.81936-.005zm-.25361.90237c-.30056,1.08159-.60028,2.16316-.89938,3.24469-.1054.3811-.1882.63966-.24846.77568-.0574.13395-.15707.25154-.2987.35275s-.30786.17985-.50687.2297-.48435.0752-.85355.0758l-.66729.001 .1765-.65481c.2048-.00029.32477-.017.35889-.05 .037-.0331.10602-.23896.20717-.6179l.91623-3.35213 1.81546-.005m-4.45854-.89253-.30235,1.124c.17223-.0989.34914-.17304.5309-.22258s.36973-.0745.56412-.0747c.29863-.00037.53985.0548.72227.16563s.2773.2393.28372.38543c.006.14409-.0422.40869-.14591.79382l-.76856,2.82638-1.70201.00072 .77687-2.88373c.0637-.2388.0885-.39215.0744-.46008s-.0771-.10184-.18866-.1018c-.10315,4e-005-.18235.0351-.23783.10503-.0527.07-.10801.20893-.166.41682l-.78276,2.92334-1.65857-.004c.44402-1.66443.88692-3.32946 1.32952-4.995l1.67092.00057m-4.35557-.0101-.29524,1.12178c.16359-.0977.33137-.17072.50353-.21913s.34999-.0722.53375-.0714c.28228.001.50997.0577.68172.16943s.26066.2406.26571.38673c.005.1441-.0428.40844-.14373.79299l-.74955,2.8218-1.61406-.0102 .76115-2.87776c.0623-.23834.087-.3915.0742-.4595s-.0721-.1023-.17747-.10299c-.0975-.00063-.17267.0338-.22571.10342s-.10396.20815-.16065.41559l-.76814,2.9169-1.57048-.0181c.43882-1.65981.87478-3.32055 1.30866-4.98213 .51948.005 1.04492.009 1.5763.0125m-2.37391.88003c-.2733,1.04825-.54758,2.09613-.82303,3.14364-.11078.42435-.19528.69879-.25323.82342s-.17957.25135-.36435.38611c-.18227.13686-.41427.23878-.69446.30538s-.61246.0989-1.00131.0898c-.47802-.0112-.83943-.0889-1.08892-.23176s-.32482-.40769-.229-.80006c.47381.0139.95288.0264 1.43719.0375-.0486.17999.006.27184.16473.27536 .11407.003.19677-.0235.24771-.0779s.10317-.16967.14916-.34571l.081-.30702c-.15386.0936-.30938.16335-.46639.20926-.15454.046-.30933.0671-.46421.0634-.26799-.006-.47553-.0572-.62405-.15176s-.23119-.21527-.25623-.36211-.00098-.35815.0716-.62781c.12942-.49242.25845-.98495.38711-1.47759 .10177-.38632.25589-.66223.46363-.82802s.48418-.24476.82533-.23769c.18652.004.34866.0389.486.10531s.25359.16415.34096.29328l.18859-.30544 1.42219.0206m-1.81166,1.05914c.0483-.18638.0654-.30543.0514-.35714s-.062-.0783-.15139-.08-.15551.0269-.20617.0856-.0986.17094-.14415.34288l-.35856,1.36938c-.0484.18212-.0671.30108-.0559.35689 .0137.0538.0638.0817.15063.0835 .0992.002.17202-.0294.21812-.0943s.10385-.21298.16565-.44432l.33036-1.26249m-1.64956-2.02367-.16381.62869c-.30063-.008-.47945-.00055-.53972.0224s-.10492.0865-.13424.19682l-.0322.12873 .61019.017-.16845.64385-.34541-.01c-.29057,1.10826-.5831,2.21597-.87784,3.32308-.48394-.0158-.96233-.0333-1.43515-.0526 .29612-1.10502.58975-2.21068.88111-3.31697l-.28984-.0108 .16906-.64219 .28971.0105c.0697-.26721.12692-.44535.17189-.53437s.11757-.16679.21807-.23343 .23346-.11885.3923-.15092 .40112-.0432.72286-.0342c.17636.005.35353.01.53149.0141m-2.88274,2.35527-1.30833-.0581 .12577-.46666c.0434-.16269.0571-.27328.0415-.33171-.0132-.0604-.0593-.0924-.13814-.0963s-.1383.0189-.17876.0684-.0838.16264-.13008.33951c-.16955.6362-.34001,1.27217-.51143,1.90789-.0408.1441-.0506.25381-.0293.32915 .0214.0732.0715.11204.15064.11623 .0927.005.16594-.0294.21934-.10292s.10879-.21488.166-.4242l.12734-.48189 1.23819.0563c-.089.32373-.16698.56653-.23371.72843s-.18927.32245-.3673.48746c-.17566.16307-.38056.28337-.61358.36057s-.49851.10494-.8015.0884c-.38663-.0211-.67271-.0981-.862-.22924s-.29998-.30952-.33424-.52827 .006-.52749.11374-.92064c.10355-.38206.20672-.76422.30952-1.14647 .093-.34265.19967-.59893.3205-.76897s.32038-.31583.60094-.43837 .6014-.17775.9587-.1605 .64327.0987.86201.24601 .34856.32634.38008.53762-.004.50744-.10588.88837m-3.83432-.42581c-.15639-.009-.33823-.0233-.54555-.0435l.0441-.21896c.0375-.18653.0546-.30478.0523-.3546s-.0248-.0799-.0734-.0847c-.0393-.004-.0748.0163-.10566.0606s-.0544.10913-.0742.20013c-.0267.12339-.0411.21495-.043.27474s.0161.1238.0524.19788 .12315.18549.24344.33068c.16087.19225.24196.36458.26846.5231s.0132.38544-.0383.68097c-.0571.3302-.12299.57824-.20025.74347-.076.16326-.17886.28588-.31797.36573s-.30022.10689-.49526.0853c-.2161-.0239-.40684-.0964-.55556-.21397s-.23974-.26379-.26289-.43675 .0152-.42529.10799-.75792l.0542-.19231 .80754.0963-.0607.25407c-.0509.21581-.0753.35695-.072.42358s.0333.10316.0881.1092c.059.006.10364-.0104.1355-.0505s.0657-.13271.097-.27216c.0428-.19205.0548-.31387.0366-.36542s-.13096-.20967-.37404-.48224c-.20411-.23076-.32789-.43384-.34559-.60393s.004-.37054.0648-.5953c.0847-.31919.17791-.55028.27699-.69378 .0993-.14554.22906-.25125.37903-.31915s.30382-.0937.45165-.0793 .25108.0579.32614.13353c.0752.0736.12119.16691.14496.28152s.0332.22004.0271.31653-.0248.24697-.0569.45128l-.0369.23595m-1.48341-1.46749c-.40564,1.52114-.8453,3.03751-1.31523,4.54968l-1.23224-.16186c.10355-.29359.20608-.58731.30756-.88117-.18427.15418-.34165.24546-.46811.2744s-.27388.0354-.44407.0129c-.24713-.0326-.44202-.11013-.57561-.2315s-.19762-.26357-.19567-.42728c.002-.16578.0678-.41046.19521-.73423 .22627-.57759.44894-1.1556.66781-1.73408 .10104-.26698.1965-.46307.2863-.58826s.23166-.22898.41831-.30601 .3829-.10499.57855-.079c.15817.021.28752.0734.39138.15777 .10584.0846.186.20211.24284.35282l.12443-.33547 1.01854.13132zm-1.3813.94499c.0575-.17511.082-.29538.0743-.36076s-.0424-.10213-.11143-.11125-.12267.0118-.16588.0621-.0936.17136-.15741.36222c-.19749.58738-.39935,1.17419-.60536,1.76046-.0738.21239-.10838.349-.10294.40994s.0492.0937.12888.10424 .13538-.0122.18094-.0663c.0458-.0562.10247-.18265.16963-.37931 .20085-.59319.39732-1.18696.58919-1.78134m-1.56629-1.33143c-.42652.60208-.87261,1.2019-1.33688,1.79987-.0245.71586-.0493,1.43174-.0742,2.14764l-.71598-.0922c-.3881-.0642-.79474-.12807-1.2199-.19122 .0485-.53805.11481-.99752.19881-1.37837-.41392.42955-.84179.83757-1.28428,1.22424-.72278-.0981-1.4922-.19393-2.30826-.28638 .84038-.62275 1.64967-1.2417 2.42403-1.85772-.0202-.66125-.0421-1.32258-.0661-1.98399 .75686.099 1.4642.2004 2.12202.30327-.11375.82798-.18838,1.29646-.2228,1.40566l.86865-.91001c.10666-.14924.19371-.26799.26188-.35616l1.3528.17539m-6.02094,1.3169c-1.24702-.14646-2.60903-.28535-4.08604-.41261l-.56978.84077c-.12005.17585-.16266.29211-.1276.34868s.16684.0943.37548.11201c.25926.022.45102.004.57958-.055s.26615-.18692.39628-.37965l.34158-.51103c1.04026.0969 2.01908.19951 2.93647.30626l-.18047.2838c-.14593.23812-.29737.41671-.45513.53581s-.42211.23569-.80271.35076-.82215.18691-1.33441.21643-1.13161.009-1.8803-.053c-.726-.0602-1.36977-.14672-1.91284-.2616s-.94039-.24488-1.1943-.39308-.38754-.30473-.41514-.4651c-.0211-.16203.0709-.38928.27616-.68137l.8247-1.14293c.24643-.3422.58806-.60145 1.01659-.77677s1.00247-.29347 1.69697-.34593c.70052-.054 1.435-.0451 2.18702.0275 .91971.0888 1.5867.22896 2.05016.41588 .46863.18547.73141.39481.81285.62654 .0864.23026.0133.53137-.21968.90372l-.31545.50997m-2.68442-.95508 .19332-.2823c.13011-.20045.18485-.33261.16467-.39661s-.12133-.1049-.30602-.12244c-.22822-.0217-.38861-.009-.477.0361-.0883.0436-.20523.17449-.35101.39284l-.19748.28301 .97354.0894m-4.20051-2.70194-3.48358,4.79601c-1.3849-.0714-2.84048-.13211-4.36674-.18017 1.21204-1.62815 2.43325-3.24631 3.65401-4.85548 1.47475.0695 2.87352.15005 4.19631.23964zm-10.76837-.37262c-.21277.39686-.42292.79392-.63051,1.19118 .33953-.1247.69645-.21817 1.07095-.28023s.7665-.0978 1.17613-.1009c.33837-.003.6396.01.90199.0359 .13831.015.26768.0321.38828.051 .42549.067.71575.15229.87791.25475 .16953.10269.24119.20005.21684.2918s-.13627.28525-.35753.58017c-.38492.50424-.76927,1.00942-1.15275,1.51558l-.16444.29433c-.166.3012-.34398.52644-.53407.67583s-.51551.27711-.9701.39078-.93962.17117-1.47002.17958c-.38039.006-.71512-.0197-1.00663-.0777s-.53981-.14825-.74653-.27111l-.35254.3169c-.98108.0237-1.93945.0527-2.8751.0863 .7341-1.69256 1.50773-3.38241 2.32465-5.06915 1.07325-.0278 2.1744-.0497 3.30345-.065m-.0783,2.0656c.11434-.21348.15235-.3518.11339-.41507-.0391-.0653-.16409-.0966-.37331-.0935-.20375.003-.3513.0342-.44362.0933s-.18893.20064-.30534.43105c-.30169.59368-.5978,1.18778-.88851,1.7823-.11242.2225-.15145.36429-.11863.42531 .0381.0609.15438.0892.35036.0853s.34981-.0387.44491-.10425 .2025-.22072.32311-.46555c.29388-.58005.59307-1.15969.89773-1.73889m-14.4578,127.03845 4.28935-.47059c3.1669-.25337 5.74124-.51077 7.72238-.67003l.84376,12.28811c-1.7099.14759-4.14251.39253-7.29721.63266l-4.25931.46739zm-1.98627-18.72771 4.33529-.47547c3.18557-.27364 5.97661-.55009 8.37252-.72718l.84376,12.28811c-2.12466.16542-4.77399.42941-7.94735.6898l-4.30524.47228zm-1.98626-18.72772 4.38122-.48035c3.20423-.29389 6.21199-.58939 9.02266-.78433l.84375,12.28811c-2.53942.18327-5.40545.46631-8.59747.74695l-4.35119.47716zm-1.98627-18.72771 4.42717-.48524c3.22289-.31415 6.44736-.6287 9.67278-.84147l.84376,12.28811c-2.95418.20111-6.03692.50319-9.24761.8041l-4.39712.48204zm-1.98626-18.72771 4.4731-.49011c3.24155-.33441 6.68273-.66801 10.32292-.89862l.84376,12.2881c-3.36894.21895-6.6684.54009-9.89775.86125l-4.44305.48692zm-1.98627-18.72772 4.51904-.495c3.26022-.35467 6.91811-.70731 10.97306-.95577l.84376,12.28812c-3.7837.23679-7.29987.57697-10.54788.91839l-4.489.49181zm-1.98626-18.72771 4.56498-.49988c3.27887-.37492 7.15348-.74662 11.62318-1.01291l.84376,12.28811c-4.19846.25462-7.93134.61386-11.19801.97554l-4.53493.49668zm-1.98626-18.72772 4.61091-.50476c3.29754-.39519 7.38885-.78593 12.27332-1.07007l.84376,12.28812c-4.61322.27247-8.56281.65075-11.84815,1.03269l-4.58087.50157z" fill="none" stroke="#000" stroke-linecap="round" stroke-linejoin="round" stroke-width=".49419"/>
  <path d="m853.32747,499.53756c0-.12912-.25656-2.62713-.57013-5.55116s-.57017-5.42986-.57022-5.56853c-9e-005-.26929.24195-.29921 8.09086-1.0003 2.75648-.24622 5.07671-.37307 5.15605-.28188s.26812,2.37253.41947,5.06965 .32893,5.22342.39459,5.61399l.1194.71013-1.90125.1552c-4.31542.35226-9.48297.83261-10.28345.9559-.51967.08-.85532.0396-.85532-.103z" fill="#ccc"/>
  <path d="m855.28 517.49c-0.25342-1.8153-1.0361-9.3642-1.0361-9.9931v-0.62055l3.0222-0.27572c9.7093-0.88581 9.5226-0.8785 9.5226-0.37285 0 0.25324 0.16282 2.805 0.36181 5.6706s0.3098 5.2621 0.24623 5.3257-2.3048 0.30755-4.9806 0.54219-5.345 0.49087-5.9316 0.56943l-1.0666 0.14282-0.138-0.98846z" fill="#ccc"/>
  <path d="m857.40475,537.11144c-.2351-.72366-1.21511-11.29963-1.05669-11.40353 .11758-.0771.89734-.20369 1.73279-.28126 6.13097-.56923 9.68731-.83779 9.78608-.73902 .0637.0637.25323,2.19836.4212,4.74371s.34326,5.09531.38954,5.66656l.0841,1.03865-4.69502.39667c-2.58225.21818-5.13123.45712-5.66438.53098s-.9821.0951-.99765.0472z" fill="#ccc"/>
  <path d="m859.25772,555.54226c0-.19701-.25591-2.74495-.56869-5.66209-.60069-5.60223-.5967-5.65206.45465-5.67327 .2509-.005 2.61159-.20077 5.246-.43492s4.80107-.4112 4.81483-.39345c.0734.0947.76662,11.40528.70295,11.46895-.0416.0416-1.8646.23083-4.05116.42058s-4.56575.40968-5.28708.48871c-1.10087.12062-1.3115.0862-1.3115-.21451z" fill="#ccc"/>
  <path d="m850.84006,475.8526c-.28833-2.8608-.57437-5.46597-.63565-5.78927l-.11141-.58782 2.47256-.25881c4.53947-.47517 11.48954-1.02894 11.59464-.92384 .16439.16439.86157,10.87748.73016,11.21991-.0827.21562-.82481.35576-2.47624.46761-2.94345.19937-9.15734.77272-10.23931.94478l-.81052.12889-.52423-5.20145z" fill="#ccc"/>
  <path d="m849.43593,462.2733c-.008-.0337-.29358-2.62734-.6352-5.76353l-.62112-5.70217 1.0161-.15771c.55886-.0867 3.53897-.36946 6.62247-.62828s5.97038-.5193 6.41528-.57885l.80891-.10827 .37138,5.75262c.20426,3.16394.34604,5.77796.31507,5.80893s-1.89641.21166-4.14542.40154c-5.91494.49937-9.03498.79976-9.62021.92621-.28226.061-.51953.0833-.52726.0495z" fill="#ccc"/>
  <path d="m847.39721,443.39787c0-.074-.2566-2.47726-.57021-5.34048s-.57022-5.38648-.57022-5.60725c0-.28751.24267-.44013.85532-.5379 1.51391-.2416 14.47853-1.3143 14.58599-1.20685 .14152.14152.86357,11.28879.73849,11.40097-.0548.0492-2.7683.31484-6.02994.5904s-6.62307.57632-7.46984.66837-1.53959.10678-1.53959.0327z" fill="#ccc"/>
  <path d="m845.34443,424.43574c0-.22086-.25569-2.78629-.56821-5.70096s-.53582-5.3318-.49622-5.3714c.22571-.2257 16.02917-1.61885 16.20087-1.42818 .14407.15999.84759,11.21794.7217,11.34382-.0637.0637-2.91669.35182-6.34004.64032s-6.96539.61308-7.87119.72126c-1.49467.17852-1.64691.15957-1.64691-.20486z" fill="#ccc"/>
  <path d="m843.1 417.6 7.1272 7.126c3.6315-6.3776 8.0769-12.245 15.222-17.815-5.3477 2.5998-11.243 7.5367-16.278 13.646l-6.0713-2.9566z" fill="#139e1c" stroke="#000" stroke-width=".45737"/>
  <path d="m843.8 436.76 7.4107 7.5729c3.7759-6.7775 8.3982-13.013 15.828-18.932-5.5604 2.7628-11.69 8.0093-16.926 14.501l-6.3128-3.1419z" fill="#139e1c" stroke="#000" stroke-width=".48077"/>
  <path d="m845.43 454.45 8.4763 9.0007c4.3189-8.0554 9.6058-15.466 18.104-22.502-6.36 3.2838-13.371 9.5194-19.359 17.235l-7.2205-3.7343z" fill="#139e1c" stroke="#000" stroke-width=".56056"/>
 </g>
 <g transform="matrix(1.2322 0 0 1.2692 165.8 180.92)">
  <path d="m25.389 19.305s-5.9049 8.176-5.9049 11.923 6.8133 1.7033 9.5386 4.4286-6.3591 9.7657-6.3591 9.7657l9.0844-2.4982 3.6338 3.8609c0-4.6558 5.3371-8.4031 2.6118-11.242-2.8389-2.8389-10.901-2.4982-11.356-6.2455s-1.1356-9.8793-1.1356-9.8793l-0.11356-0.11355z" fill="url(#c)" opacity=".48045"/>
  <path d="m36.916 9.3946c1.3215 3.0574 3.6431 2.9018 3.7006 6.9825 0.03274 2.2758 1.8325 3.4707 1.8325 5.7955s-4.015 3.4735-5.3825 4.841 0.10788 4.8744-3.602 5.905c-3.6747 1.0207-5.4701-0.41025-7.7948-0.41025s-7.8878 4.4827-9.9391 2.4314-2.095-6.534-3.8728-8.3117c-1.9145-1.9145-4.9394-4.5894-4.9394-8.0082s1.9742-5.2236 4.8027-8.402c2.9183-3.2793 3.0085-8.2051 6.4273-8.2051s4.7292 0.93781 7.639 0.86427c4.6383-0.11722 5.2067-2.3233 8.6181-0.5935 3.0077 1.5252 1.4762 4.7177 2.5107 7.1111z" fill="url(#d)" opacity=".48045"/>
  <path d="m23.621 18.068s-5.9049 8.176-5.9049 11.923 6.8133 1.7033 9.5386 4.4286-6.3591 9.7657-6.3591 9.7657l9.0844-2.4982 3.6338 3.8609c0-4.6558 5.3371-8.4031 2.6118-11.242-2.8389-2.8389-10.901-2.4982-11.356-6.2455s-1.1356-9.8793-1.1356-9.8793l-0.11356-0.11355z" fill="url(#g)" stroke="#1f254f" stroke-miterlimit="6.6"/>
  <path d="m20.803 31.602c4.552 0.44838 7.429 1.2355 7.8066 3.9891 0.33011 2.4072-4.2321 6.733-4.2321 6.733l5.8439-1.6248 2.8414 2.961c0.66291-3.7109 4.3648-6.222 2.6789-8.5046-2.1147-2.8632-8.966-2.2435-9.2936-4.9458s-8.3341 1.1246-5.645 1.3921z" fill="none" stroke="url(#f)" stroke-miterlimit="6.6" stroke-width=".72113"/>
  <path d="m34.935 9.2468c1.2663 2.9296 3.4909 2.7806 3.546 6.6908 0.03138 2.1807 1.7559 3.3258 1.7559 5.5534s-3.8473 3.3284-5.1577 4.6388 0.10338 4.6708-3.4516 5.6583c-3.5212 0.9781-5.2416-0.39311-7.4692-0.39311s-7.5583 4.2954-9.5239 2.3298-2.0075-6.261-3.711-7.9645c-1.8345-1.8345-4.7331-4.3977-4.7331-7.6736s1.8917-5.0054 4.602-8.051c2.7964-3.1423 2.8828-7.8623 6.1588-7.8623s4.5316 0.89863 7.3198 0.82817c4.4446-0.11233 4.9892-2.2263 8.258-0.56871 2.8821 1.4614 1.4145 4.5206 2.4058 6.814z" fill="url(#e)" stroke="#4c0901" stroke-linecap="round" stroke-linejoin="round"/>
  <path d="m34.977 17.568c0 6.2455-5.11 11.356-11.356 11.356s-11.356-5.11-11.356-11.356 5.11-11.356 11.356-11.356 11.356 5.11 11.356 11.356z" fill="url(#b)"/>
  <path d="m33.889 10.03c1.1533 2.6681 3.1793 2.5323 3.2294 6.0934 0.02857 1.986 1.5991 3.0288 1.5991 5.0576s-3.5038 3.0312-4.6972 4.2246 0.09415 4.2538-3.1434 5.1531c-3.2068 0.89077-4.7736-0.35802-6.8023-0.35802s-6.8835 3.9119-8.6736 2.1218-1.8283-5.702-3.3797-7.2534c-1.6708-1.6708-4.3105-4.005-4.3105-6.9885s1.7228-4.5585 4.1912-7.3322c2.5467-2.8618 2.6255-7.1604 5.6089-7.1604s4.127 0.8184 6.6663 0.75423c4.0478-0.1023 4.5438-2.0275 7.5208-0.51793 2.6247 1.331 1.2882 4.117 2.191 6.2056z" fill="none" stroke="url(#i)" stroke-linecap="round" stroke-linejoin="round"/>
  <path d="m23.663 7.0525c-5.8678 0-10.646 4.7422-10.646 10.61 0 3.671 1.9837 6.7806 4.8162 8.6908 7.2405-3.897 5.9538-10.805 15.607-12.747-1.599-3.8491-5.3516-6.5543-9.7772-6.5543z" fill="url(#h)"/>
 </g>
</svg>
